{"glyphs":{"0":{"ha":942,"x_min":0,"x_max":0,"o":"m 72 488 b 474 -15 72 179 235 -15 b 868 488 710 -15 868 179 b 474 988 868 794 710 988 b 72 488 235 988 72 794 z m 750 488 b 474 85 750 242 635 85 b 190 488 308 85 190 242 b 474 888 190 731 308 888 b 750 488 635 888 750 731 z "},"1":{"ha":532,"x_min":0,"x_max":0,"o":"m 407 972 l 254 972 b 33 706 249 793 131 706 l 33 592 b 289 847 175 592 258 697 l 289 0 l 407 0 z "},"2":{"ha":878,"x_min":0,"x_max":0,"o":"m 204 100 b 503 388 225 236 313 319 b 800 688 688 454 800 535 b 450 988 800 854 668 988 b 67 597 207 988 67 833 l 185 597 b 453 888 185 794 301 888 b 682 700 583 888 682 817 b 486 494 682 607 621 547 b 79 0 181 372 79 253 l 814 0 l 814 100 z "},"3":{"ha":881,"x_min":0,"x_max":0,"o":"m 571 511 b 772 713 699 542 772 614 b 433 988 772 875 633 988 b 81 658 224 988 81 854 l 197 658 b 426 888 197 797 289 888 b 654 708 560 888 654 817 b 388 556 654 603 547 556 l 388 464 b 696 281 572 464 696 399 b 446 85 696 158 594 85 b 182 331 286 85 182 185 l 64 331 b 451 -15 64 124 219 -15 b 813 279 669 -15 813 100 b 571 511 813 399 722 479 z "},"4":{"ha":893,"x_min":0,"x_max":0,"o":"m 846 390 l 710 390 l 710 972 l 524 972 b 29 390 360 699 114 464 l 29 290 l 593 290 l 593 0 l 710 0 l 710 290 l 846 290 z m 179 390 b 593 904 268 476 464 681 l 593 390 z "},"5":{"ha":885,"x_min":0,"x_max":0,"o":"m 504 703 b 203 549 361 703 244 622 l 278 872 l 782 872 l 782 972 l 182 972 l 68 475 l 186 475 b 472 632 233 556 357 632 b 704 368 610 632 704 525 b 446 82 704 197 592 82 b 176 342 299 82 179 199 l 58 342 b 444 -15 61 140 235 -15 b 822 372 658 -15 822 144 b 504 703 822 589 675 703 z "},"6":{"ha":893,"x_min":0,"x_max":0,"o":"m 72 425 b 464 -15 72 97 272 -15 b 821 308 674 -15 821 119 b 479 632 821 504 658 632 b 183 431 294 632 200 497 b 481 892 183 665 278 892 b 692 694 607 892 679 813 l 810 694 b 482 988 796 863 672 988 b 72 425 183 988 72 665 z m 703 317 b 457 78 703 176 597 78 b 203 311 313 78 203 183 b 463 544 203 439 317 544 b 703 317 597 544 703 456 z "},"7":{"ha":789,"x_min":0,"x_max":0,"o":"m 35 972 l 35 872 l 635 872 b 94 0 453 690 193 306 l 225 0 b 769 872 321 307 567 657 l 769 972 z "},"8":{"ha":854,"x_min":0,"x_max":0,"o":"m 592 515 b 744 722 686 554 744 629 b 433 988 744 876 615 988 b 108 722 244 988 108 876 b 269 515 108 629 171 554 b 68 278 147 475 68 388 b 433 -15 68 107 222 -15 b 786 278 638 -15 786 107 b 592 515 786 388 710 475 z m 433 893 b 629 721 546 893 629 819 b 433 543 629 618 546 543 b 225 721 314 543 225 618 b 433 893 225 819 314 893 z m 433 81 b 186 283 292 81 186 167 b 433 479 186 397 292 479 b 669 283 569 479 669 397 b 433 81 669 167 568 81 z "},"9":{"ha":893,"x_min":0,"x_max":0,"o":"m 821 547 b 431 988 821 875 622 988 b 74 664 219 988 74 853 b 414 340 74 468 235 340 b 711 542 599 340 693 475 b 413 81 711 307 617 81 b 201 278 286 81 214 160 l 83 278 b 411 -15 99 110 222 -15 b 821 547 711 -15 821 307 z m 190 656 b 436 894 190 796 297 894 b 692 661 581 894 692 789 b 432 428 692 533 578 428 b 190 656 297 428 190 517 z "}," ":{"ha":340,"x_min":0,"x_max":0,"o":""},"A":{"ha":963,"x_min":0,"x_max":0,"o":"m 831 0 l 953 0 l 568 972 l 394 972 l 11 0 l 132 0 l 247 292 l 715 292 z m 288 394 l 482 883 l 675 394 z "},"Á":{"ha":963,"x_min":0,"x_max":0,"o":"m 767 1285 l 604 1285 l 403 1056 l 499 1056 z m 831 0 l 953 0 l 568 972 l 394 972 l 11 0 l 132 0 l 247 292 l 715 292 z m 288 394 l 482 883 l 675 394 z "},"Ă":{"ha":963,"x_min":0,"x_max":0,"o":"m 481 1057 b 731 1288 626 1057 726 1150 l 638 1288 b 481 1128 636 1194 575 1128 b 322 1288 385 1128 324 1194 l 231 1288 b 481 1057 235 1150 335 1057 z m 831 0 l 953 0 l 568 972 l 394 972 l 11 0 l 132 0 l 247 292 l 715 292 z m 288 394 l 482 883 l 675 394 z "},"Â":{"ha":963,"x_min":0,"x_max":0,"o":"m 479 1224 l 635 1056 l 742 1056 l 553 1285 l 406 1285 l 217 1056 l 324 1056 z m 831 0 l 953 0 l 568 972 l 394 972 l 11 0 l 132 0 l 247 292 l 715 292 z m 288 394 l 482 883 l 675 394 z "},"Ä":{"ha":963,"x_min":0,"x_max":0,"o":"m 318 1082 b 394 1158 360 1082 394 1115 b 318 1236 394 1201 360 1236 b 242 1158 274 1236 242 1201 b 318 1082 242 1115 274 1082 z m 643 1082 b 721 1158 686 1082 721 1115 b 643 1236 721 1201 686 1236 b 568 1158 600 1236 568 1201 b 643 1082 568 1115 600 1082 z m 831 0 l 953 0 l 568 972 l 394 972 l 11 0 l 132 0 l 247 292 l 715 292 z m 288 394 l 482 883 l 675 394 z "},"À":{"ha":963,"x_min":0,"x_max":0,"o":"m 560 1042 l 358 1271 l 196 1271 l 464 1042 z m 831 0 l 953 0 l 568 972 l 394 972 l 11 0 l 132 0 l 247 292 l 715 292 z m 288 394 l 482 883 l 675 394 z "},"Ā":{"ha":963,"x_min":0,"x_max":0,"o":"m 772 1135 l 189 1135 l 189 1056 l 772 1056 z m 831 0 l 953 0 l 568 972 l 394 972 l 11 0 l 132 0 l 247 292 l 715 292 z m 288 394 l 482 883 l 675 394 z "},"Ą":{"ha":963,"x_min":0,"x_max":0,"o":"m 943 -175 b 894 -117 911 -175 894 -146 b 947 0 894 -75 908 -43 l 953 0 l 568 972 l 394 972 l 11 0 l 132 0 l 247 292 l 715 292 l 831 0 l 853 0 b 796 -133 815 -39 796 -90 b 915 -236 796 -192 840 -236 b 1008 -204 951 -236 988 -225 l 1008 -147 b 943 -175 993 -167 975 -175 z m 288 394 l 482 883 l 675 394 z "},"Å":{"ha":963,"x_min":0,"x_max":0,"o":"m 481 1050 b 653 1222 575 1050 653 1128 b 481 1394 653 1317 575 1394 b 308 1222 386 1394 308 1317 b 481 1050 308 1128 386 1050 z m 481 1329 b 588 1222 539 1329 588 1281 b 481 1117 588 1164 539 1117 b 375 1222 422 1117 375 1164 b 481 1329 375 1281 422 1329 z m 831 0 l 953 0 l 568 972 l 394 972 l 11 0 l 132 0 l 247 292 l 715 292 z m 288 394 l 482 883 l 675 394 z "},"Ã":{"ha":963,"x_min":0,"x_max":0,"o":"m 364 1175 b 604 1078 440 1175 519 1078 b 761 1238 669 1078 761 1119 l 697 1238 b 615 1160 693 1200 668 1160 b 376 1257 550 1160 471 1257 b 215 1097 299 1257 215 1206 l 281 1097 b 364 1175 286 1138 318 1175 z m 831 0 l 953 0 l 568 972 l 394 972 l 11 0 l 132 0 l 247 292 l 715 292 z m 288 394 l 482 883 l 675 394 z "},"Æ":{"ha":1439,"x_min":0,"x_max":0,"o":"m 1365 869 l 1365 972 l 569 972 l -28 0 l 104 0 l 279 285 l 679 285 l 679 0 l 1365 0 l 1365 103 l 804 103 l 804 451 l 1333 451 l 1333 550 l 804 550 l 804 869 z m 342 388 l 679 936 l 679 388 z "},"B":{"ha":956,"x_min":0,"x_max":0,"o":"m 722 524 b 847 717 800 561 847 629 b 579 972 847 869 746 972 l 121 972 l 121 0 l 610 0 b 894 279 786 0 894 113 b 722 524 894 403 828 494 z m 239 876 l 540 876 b 729 707 667 876 729 808 b 550 557 729 617 657 557 l 239 557 z m 585 96 l 239 96 l 239 467 l 606 467 b 776 283 708 467 776 392 b 585 96 776 171 714 96 z "},"C":{"ha":1017,"x_min":0,"x_max":0,"o":"m 64 482 b 524 -15 64 190 258 -15 b 956 376 771 -15 942 144 l 838 376 b 524 85 822 201 704 85 b 182 483 328 85 182 244 b 524 888 182 724 326 888 b 838 576 704 888 821 763 l 956 576 b 524 988 942 819 769 988 b 64 482 258 988 64 779 z "},"Ć":{"ha":1017,"x_min":0,"x_max":0,"o":"m 633 1285 l 432 1056 l 528 1056 l 796 1285 z m 64 482 b 524 -15 64 190 258 -15 b 956 376 771 -15 942 144 l 838 376 b 524 85 822 201 704 85 b 182 483 328 85 182 244 b 524 888 182 724 326 888 b 838 576 704 888 821 763 l 956 576 b 524 988 942 819 769 988 b 64 482 258 988 64 779 z "},"Č":{"ha":1017,"x_min":0,"x_max":0,"o":"m 436 1056 l 583 1056 l 772 1285 l 665 1285 l 510 1117 l 356 1285 l 247 1285 z m 524 85 b 182 483 328 85 182 244 b 524 888 182 724 326 888 b 838 576 704 888 821 763 l 956 576 b 524 988 942 819 769 988 b 64 482 258 988 64 779 b 524 -15 64 190 258 -15 b 956 376 771 -15 942 144 l 838 376 b 524 85 822 201 704 85 z "},"Ç":{"ha":1017,"x_min":0,"x_max":0,"o":"m 524 85 b 182 483 328 85 182 244 b 524 888 182 724 326 888 b 838 576 704 888 821 763 l 956 576 b 524 988 942 819 769 988 b 64 482 258 988 64 779 b 450 -10 64 218 224 25 l 381 -144 l 451 -144 b 532 -111 471 -125 506 -111 b 586 -165 563 -111 586 -136 b 508 -228 586 -201 551 -228 b 425 -185 479 -228 442 -211 l 361 -224 b 506 -292 383 -258 440 -292 b 665 -160 596 -292 665 -235 b 557 -65 665 -106 619 -65 b 474 -97 528 -65 496 -79 l 547 -15 b 956 376 782 -6 942 151 l 838 376 b 524 85 822 201 704 85 z "},"Ċ":{"ha":1017,"x_min":0,"x_max":0,"o":"m 431 1142 b 510 1063 431 1099 465 1063 b 589 1142 553 1063 589 1099 b 510 1219 589 1185 553 1219 b 431 1142 465 1219 431 1185 z m 64 482 b 524 -15 64 190 258 -15 b 956 376 771 -15 942 144 l 838 376 b 524 85 822 201 704 85 b 182 483 328 85 182 244 b 524 888 182 724 326 888 b 838 576 704 888 821 763 l 956 576 b 524 988 942 819 769 988 b 64 482 258 988 64 779 z "},"D":{"ha":994,"x_min":0,"x_max":0,"o":"m 121 972 l 121 0 l 488 0 b 926 481 808 0 926 215 b 485 972 926 749 807 972 z m 439 101 l 239 101 l 239 871 l 438 871 b 810 481 743 871 810 694 b 439 101 810 271 743 101 z "},"Ð":{"ha":994,"x_min":0,"x_max":0,"o":"m 485 972 l 121 972 l 121 543 l -72 543 l -72 464 l 121 464 l 121 0 l 488 0 b 926 481 808 0 926 215 b 485 972 926 749 807 972 z m 439 101 l 239 101 l 239 464 l 447 464 l 447 543 l 239 543 l 239 871 l 438 871 b 810 481 743 871 810 694 b 439 101 810 271 743 101 z "},"Ď":{"ha":994,"x_min":0,"x_max":0,"o":"m 422 1056 l 569 1056 l 758 1285 l 651 1285 l 496 1117 l 342 1285 l 233 1285 z m 485 972 l 121 972 l 121 0 l 488 0 b 926 481 808 0 926 215 b 485 972 926 749 807 972 z m 439 101 l 239 101 l 239 871 l 438 871 b 810 481 743 871 810 694 b 439 101 810 271 743 101 z "},"Đ":{"ha":994,"x_min":0,"x_max":0,"o":"m 485 972 l 121 972 l 121 543 l -72 543 l -72 464 l 121 464 l 121 0 l 488 0 b 926 481 808 0 926 215 b 485 972 926 749 807 972 z m 439 101 l 239 101 l 239 464 l 447 464 l 447 543 l 239 543 l 239 871 l 438 871 b 810 481 743 871 810 694 b 439 101 810 271 743 101 z "},"E":{"ha":874,"x_min":0,"x_max":0,"o":"m 800 869 l 800 972 l 121 972 l 121 0 l 800 0 l 800 103 l 239 103 l 239 451 l 768 451 l 768 550 l 239 550 l 239 869 z "},"É":{"ha":874,"x_min":0,"x_max":0,"o":"m 749 1285 l 586 1285 l 385 1056 l 481 1056 z m 800 869 l 800 972 l 121 972 l 121 0 l 800 0 l 800 103 l 239 103 l 239 451 l 768 451 l 768 550 l 239 550 l 239 869 z "},"Ě":{"ha":874,"x_min":0,"x_max":0,"o":"m 389 1056 l 536 1056 l 725 1285 l 618 1285 l 463 1117 l 308 1285 l 200 1285 z m 800 869 l 800 972 l 121 972 l 121 0 l 800 0 l 800 103 l 239 103 l 239 451 l 768 451 l 768 550 l 239 550 l 239 869 z "},"Ê":{"ha":874,"x_min":0,"x_max":0,"o":"m 463 1224 l 618 1056 l 725 1056 l 536 1285 l 389 1285 l 200 1056 l 307 1056 z m 800 869 l 800 972 l 121 972 l 121 0 l 800 0 l 800 103 l 239 103 l 239 451 l 768 451 l 768 550 l 239 550 l 239 869 z "},"Ë":{"ha":874,"x_min":0,"x_max":0,"o":"m 301 1082 b 378 1158 343 1082 378 1115 b 301 1236 378 1201 343 1236 b 225 1158 257 1236 225 1201 b 301 1082 225 1115 257 1082 z m 626 1082 b 704 1158 669 1082 704 1115 b 626 1236 704 1201 669 1236 b 551 1158 583 1236 551 1201 b 626 1082 551 1115 583 1082 z m 800 869 l 800 972 l 121 972 l 121 0 l 800 0 l 800 103 l 239 103 l 239 451 l 768 451 l 768 550 l 239 550 l 239 869 z "},"Ė":{"ha":874,"x_min":0,"x_max":0,"o":"m 464 1063 b 543 1142 507 1063 543 1099 b 464 1219 543 1185 507 1219 b 385 1142 419 1219 385 1185 b 464 1063 385 1099 419 1063 z m 800 869 l 800 972 l 121 972 l 121 0 l 800 0 l 800 103 l 239 103 l 239 451 l 768 451 l 768 550 l 239 550 l 239 869 z "},"È":{"ha":874,"x_min":0,"x_max":0,"o":"m 542 1042 l 340 1271 l 178 1271 l 446 1042 z m 800 869 l 800 972 l 121 972 l 121 0 l 800 0 l 800 103 l 239 103 l 239 451 l 768 451 l 768 550 l 239 550 l 239 869 z "},"Ē":{"ha":874,"x_min":0,"x_max":0,"o":"m 754 1135 l 171 1135 l 171 1056 l 754 1056 z m 800 869 l 800 972 l 121 972 l 121 0 l 800 0 l 800 103 l 239 103 l 239 451 l 768 451 l 768 550 l 239 550 l 239 869 z "},"Ę":{"ha":874,"x_min":0,"x_max":0,"o":"m 736 -174 b 688 -115 704 -174 688 -146 b 739 0 688 -74 701 -43 l 800 0 l 800 103 l 239 103 l 239 451 l 768 451 l 768 550 l 239 550 l 239 869 l 800 869 l 800 972 l 121 972 l 121 0 l 663 0 b 589 -132 625 -29 589 -89 b 707 -235 589 -190 633 -235 b 801 -203 744 -235 781 -225 l 801 -146 b 736 -174 786 -165 768 -174 z "},"F":{"ha":843,"x_min":0,"x_max":0,"o":"m 800 869 l 800 972 l 121 972 l 121 0 l 242 0 l 242 446 l 772 446 l 772 549 l 242 549 l 242 869 z "},"G":{"ha":1053,"x_min":0,"x_max":0,"o":"m 572 431 l 853 431 b 544 82 851 224 717 82 b 185 482 346 82 185 244 b 533 890 185 721 338 890 b 846 610 713 890 831 776 l 965 610 b 539 988 951 831 782 988 b 64 481 274 988 64 776 b 515 -15 64 192 269 -15 b 872 275 683 -15 821 100 l 904 0 l 965 0 l 965 525 l 572 525 z "},"Ğ":{"ha":1053,"x_min":0,"x_max":0,"o":"m 532 1057 b 782 1288 676 1057 778 1150 l 689 1288 b 532 1128 686 1194 626 1128 b 374 1288 436 1128 375 1194 l 282 1288 b 532 1057 286 1150 386 1057 z m 572 431 l 853 431 b 544 82 851 224 717 82 b 185 482 346 82 185 244 b 533 890 185 721 338 890 b 846 610 713 890 831 776 l 965 610 b 539 988 951 831 782 988 b 64 481 274 988 64 776 b 515 -15 64 192 269 -15 b 872 275 683 -15 821 100 l 904 0 l 965 0 l 965 525 l 572 525 z "},"Ģ":{"ha":1053,"x_min":0,"x_max":0,"o":"m 572 431 l 853 431 b 544 82 851 224 717 82 b 185 482 346 82 185 244 b 533 890 185 721 338 890 b 846 610 713 890 831 776 l 965 610 b 539 988 951 831 782 988 b 64 481 274 988 64 776 b 515 -15 64 192 269 -15 b 872 275 683 -15 821 100 l 904 0 l 965 0 l 965 525 l 572 525 z m 463 -162 l 521 -162 b 475 -233 521 -203 510 -233 l 475 -264 b 569 -162 519 -264 569 -233 l 569 -56 l 463 -56 z "},"Ġ":{"ha":1053,"x_min":0,"x_max":0,"o":"m 535 1067 b 614 1146 578 1067 614 1103 b 535 1224 614 1189 578 1224 b 456 1146 490 1224 456 1189 b 535 1067 456 1103 490 1067 z m 572 431 l 853 431 b 544 82 851 224 717 82 b 185 482 346 82 185 244 b 533 890 185 721 338 890 b 846 610 713 890 831 776 l 965 610 b 539 988 951 831 782 988 b 64 481 274 988 64 776 b 515 -15 64 192 269 -15 b 872 275 683 -15 821 100 l 904 0 l 965 0 l 965 525 l 572 525 z "},"H":{"ha":1039,"x_min":0,"x_max":0,"o":"m 801 972 l 801 553 l 239 553 l 239 972 l 121 972 l 121 0 l 239 0 l 239 450 l 801 450 l 801 0 l 919 0 l 919 972 z "},"Ħ":{"ha":1039,"x_min":0,"x_max":0,"o":"m 986 807 l 919 807 l 919 972 l 801 972 l 801 807 l 239 807 l 239 972 l 121 972 l 121 807 l 47 807 l 47 728 l 121 728 l 121 0 l 239 0 l 239 450 l 801 450 l 801 0 l 919 0 l 919 728 l 986 728 z m 801 553 l 239 553 l 239 728 l 801 728 z "},"I":{"ha":353,"x_min":0,"x_max":0,"o":"m 121 972 l 121 0 l 233 0 l 233 972 z "},"Í":{"ha":353,"x_min":0,"x_max":0,"o":"m 303 1285 l 101 1056 l 197 1056 l 465 1285 z m 121 972 l 121 0 l 233 0 l 233 972 z "},"Î":{"ha":353,"x_min":0,"x_max":0,"o":"m 253 1285 l 106 1285 l -83 1056 l 24 1056 l 179 1224 l 335 1056 l 442 1056 z m 121 0 l 233 0 l 233 972 l 121 972 z "},"Ï":{"ha":353,"x_min":0,"x_max":0,"o":"m -58 1158 b 18 1082 -58 1115 -26 1082 b 94 1158 60 1082 94 1115 b 18 1236 94 1201 60 1236 b -58 1158 -26 1236 -58 1201 z m 268 1158 b 343 1082 268 1115 300 1082 b 421 1158 386 1082 421 1115 b 343 1236 421 1201 386 1236 b 268 1158 300 1236 268 1201 z m 121 972 l 121 0 l 233 0 l 233 972 z "},"İ":{"ha":353,"x_min":0,"x_max":0,"o":"m 101 1142 b 181 1063 101 1099 136 1063 b 260 1142 224 1063 260 1099 b 181 1219 260 1185 224 1219 b 101 1142 136 1219 101 1185 z m 121 972 l 121 0 l 233 0 l 233 972 z "},"Ì":{"ha":353,"x_min":0,"x_max":0,"o":"m 57 1271 l -106 1271 l 163 1042 l 258 1042 z m 121 972 l 121 0 l 233 0 l 233 972 z "},"Ī":{"ha":353,"x_min":0,"x_max":0,"o":"m -112 1135 l -112 1056 l 471 1056 l 471 1135 z m 121 972 l 121 0 l 233 0 l 233 972 z "},"Į":{"ha":353,"x_min":0,"x_max":0,"o":"m 219 -174 b 169 -115 188 -174 169 -146 b 222 0 169 -74 185 -43 l 233 0 l 233 972 l 121 972 l 121 0 l 136 0 b 72 -132 99 -39 72 -89 b 190 -235 72 -190 115 -235 b 285 -203 228 -235 264 -225 l 285 -146 b 219 -174 269 -165 251 -174 z "},"J":{"ha":803,"x_min":0,"x_max":0,"o":"m 572 972 l 572 329 b 369 83 572 161 482 83 b 151 394 239 83 151 194 l 33 394 b 369 -15 33 128 165 -15 b 690 329 560 -15 689 94 l 690 972 z "},"K":{"ha":921,"x_min":0,"x_max":0,"o":"m 769 0 l 921 0 l 439 556 l 910 972 l 750 972 l 239 521 l 239 972 l 121 972 l 121 0 l 239 0 l 239 379 l 358 485 z "},"Ķ":{"ha":921,"x_min":0,"x_max":0,"o":"m 439 556 l 910 972 l 750 972 l 239 521 l 239 972 l 121 972 l 121 0 l 239 0 l 239 379 l 358 485 l 769 0 l 921 0 z m 404 -162 l 463 -162 b 417 -233 463 -203 451 -233 l 417 -264 b 511 -162 461 -264 511 -233 l 511 -56 l 404 -56 z "},"L":{"ha":761,"x_min":0,"x_max":0,"o":"m 239 103 l 239 972 l 121 972 l 121 0 l 746 0 l 746 103 z "},"Ĺ":{"ha":761,"x_min":0,"x_max":0,"o":"m 469 1285 l 307 1285 l 106 1056 l 201 1056 z m 239 103 l 239 972 l 121 972 l 121 0 l 746 0 l 746 103 z "},"Ľ":{"ha":761,"x_min":0,"x_max":0,"o":"m 239 103 l 239 972 l 121 972 l 121 0 l 746 0 l 746 103 z m 368 -162 l 426 -162 b 381 -233 426 -203 415 -233 l 381 -264 b 475 -162 425 -264 475 -233 l 475 -56 l 368 -56 z "},"Ļ":{"ha":761,"x_min":0,"x_max":0,"o":"m 239 103 l 239 972 l 121 972 l 121 0 l 746 0 l 746 103 z m 368 -162 l 426 -162 b 381 -233 426 -203 415 -233 l 381 -264 b 475 -162 425 -264 475 -233 l 475 -56 l 368 -56 z "},"Ŀ":{"ha":764,"x_min":0,"x_max":0,"o":"m 239 103 l 239 972 l 121 972 l 121 0 l 746 0 l 746 103 z m 540 399 b 626 488 588 399 626 439 b 540 572 626 535 588 572 b 453 488 492 572 453 535 b 540 399 453 439 492 399 z "},"Ł":{"ha":810,"x_min":0,"x_max":0,"o":"m 286 103 l 286 329 l 590 483 l 590 592 l 286 438 l 286 972 l 168 972 l 168 376 l 50 317 l 50 208 l 168 268 l 168 0 l 794 0 l 794 103 z "},"M":{"ha":1267,"x_min":0,"x_max":0,"o":"m 1146 972 l 940 972 l 632 64 l 328 972 l 121 972 l 121 0 l 238 0 l 238 893 l 536 0 l 728 0 l 1029 894 l 1029 0 l 1146 0 z "},"N":{"ha":1058,"x_min":0,"x_max":0,"o":"m 819 972 l 819 78 l 325 972 l 121 972 l 121 0 l 239 0 l 239 894 l 733 0 l 938 0 l 938 972 z "},"Ń":{"ha":1058,"x_min":0,"x_max":0,"o":"m 815 1285 l 653 1285 l 451 1056 l 547 1056 z m 819 972 l 819 78 l 325 972 l 121 972 l 121 0 l 239 0 l 239 894 l 733 0 l 938 0 l 938 972 z "},"Ň":{"ha":1058,"x_min":0,"x_max":0,"o":"m 456 1056 l 603 1056 l 792 1285 l 685 1285 l 529 1117 l 375 1285 l 267 1285 z m 819 972 l 819 78 l 325 972 l 121 972 l 121 0 l 239 0 l 239 894 l 733 0 l 938 0 l 938 972 z "},"Ņ":{"ha":1058,"x_min":0,"x_max":0,"o":"m 819 972 l 819 78 l 325 972 l 121 972 l 121 0 l 239 0 l 239 894 l 733 0 l 938 0 l 938 972 z m 471 -162 l 529 -162 b 483 -233 529 -203 518 -233 l 483 -264 b 578 -162 528 -264 578 -233 l 578 -56 l 471 -56 z "},"Ŋ":{"ha":1058,"x_min":0,"x_max":0,"o":"m 589 -197 b 738 -249 624 -231 678 -249 b 938 0 886 -249 938 -128 l 938 972 l 819 972 l 819 196 l 290 972 l 121 972 l 121 0 l 239 0 l 239 851 l 819 0 b 717 -156 821 -107 789 -156 b 589 -104 660 -156 621 -136 z "},"Ñ":{"ha":1058,"x_min":0,"x_max":0,"o":"m 411 1175 b 651 1078 488 1175 567 1078 b 808 1238 717 1078 808 1119 l 744 1238 b 663 1160 740 1200 715 1160 b 424 1257 597 1160 518 1257 b 263 1097 346 1257 263 1206 l 328 1097 b 411 1175 333 1138 365 1175 z m 819 972 l 819 78 l 325 972 l 121 972 l 121 0 l 239 0 l 239 894 l 733 0 l 938 0 l 938 972 z "},"O":{"ha":1053,"x_min":0,"x_max":0,"o":"m 64 489 b 526 -15 64 193 250 -15 b 989 489 803 -15 989 193 b 526 986 989 781 803 986 b 64 489 249 986 64 781 z m 871 486 b 526 85 871 254 738 85 b 182 486 317 85 182 254 b 526 886 182 717 317 886 b 871 486 738 886 871 717 z "},"Ó":{"ha":1053,"x_min":0,"x_max":0,"o":"m 650 1285 l 449 1056 l 544 1056 l 813 1285 z m 64 489 b 526 -15 64 193 250 -15 b 989 489 803 -15 989 193 b 526 986 989 781 803 986 b 64 489 249 986 64 781 z m 871 486 b 526 85 871 254 738 85 b 182 486 317 85 182 254 b 526 886 182 717 317 886 b 871 486 738 886 871 717 z "},"Ô":{"ha":1053,"x_min":0,"x_max":0,"o":"m 526 1224 l 682 1056 l 789 1056 l 600 1285 l 453 1285 l 264 1056 l 371 1056 z m 526 986 b 64 489 249 986 64 781 b 526 -15 64 193 250 -15 b 989 489 803 -15 989 193 b 526 986 989 781 803 986 z m 526 85 b 182 486 317 85 182 254 b 526 886 182 717 317 886 b 871 486 738 886 871 717 b 526 85 871 254 738 85 z "},"Ö":{"ha":1053,"x_min":0,"x_max":0,"o":"m 289 1158 b 365 1082 289 1115 321 1082 b 442 1158 407 1082 442 1115 b 365 1236 442 1201 407 1236 b 289 1158 321 1236 289 1201 z m 615 1158 b 690 1082 615 1115 647 1082 b 768 1158 733 1082 768 1115 b 690 1236 768 1201 733 1236 b 615 1158 647 1236 615 1201 z m 64 489 b 526 -15 64 193 250 -15 b 989 489 803 -15 989 193 b 526 986 989 781 803 986 b 64 489 249 986 64 781 z m 871 486 b 526 85 871 254 738 85 b 182 486 317 85 182 254 b 526 886 182 717 317 886 b 871 486 738 886 871 717 z "},"Ò":{"ha":1053,"x_min":0,"x_max":0,"o":"m 404 1271 l 242 1271 l 510 1042 l 606 1042 z m 64 489 b 526 -15 64 193 250 -15 b 989 489 803 -15 989 193 b 526 986 989 781 803 986 b 64 489 249 986 64 781 z m 871 486 b 526 85 871 254 738 85 b 182 486 317 85 182 254 b 526 886 182 717 317 886 b 871 486 738 886 871 717 z "},"Ő":{"ha":1053,"x_min":0,"x_max":0,"o":"m 517 1285 l 315 1056 l 411 1056 l 679 1285 z m 768 1285 l 567 1056 l 663 1056 l 931 1285 z m 64 489 b 526 -15 64 193 250 -15 b 989 489 803 -15 989 193 b 526 986 989 781 803 986 b 64 489 249 986 64 781 z m 871 486 b 526 85 871 254 738 85 b 182 486 317 85 182 254 b 526 886 182 717 317 886 b 871 486 738 886 871 717 z "},"Ō":{"ha":1053,"x_min":0,"x_max":0,"o":"m 235 1135 l 235 1056 l 818 1056 l 818 1135 z m 64 489 b 526 -15 64 193 250 -15 b 989 489 803 -15 989 193 b 526 986 989 781 803 986 b 64 489 249 986 64 781 z m 871 486 b 526 85 871 254 738 85 b 182 486 317 85 182 254 b 526 886 182 717 317 886 b 871 486 738 886 871 717 z "},"Ø":{"ha":1053,"x_min":0,"x_max":0,"o":"m 846 863 l 981 1056 l 872 1056 l 775 918 b 526 986 706 963 621 986 b 64 489 249 986 64 781 b 207 110 64 332 117 200 l 71 -83 l 181 -83 l 276 54 b 526 -15 347 10 431 -15 b 989 489 803 -15 989 193 b 846 863 989 644 936 775 z m 182 486 b 526 886 182 717 317 886 b 714 831 599 886 663 867 l 272 203 b 182 486 214 274 182 372 z m 526 85 b 339 142 454 85 390 106 l 781 769 b 871 486 839 699 871 600 b 526 85 871 254 738 85 z "},"Õ":{"ha":1053,"x_min":0,"x_max":0,"o":"m 410 1175 b 650 1078 486 1175 565 1078 b 807 1238 715 1078 807 1119 l 743 1238 b 661 1160 739 1200 714 1160 b 422 1257 596 1160 517 1257 b 261 1097 344 1257 261 1206 l 326 1097 b 410 1175 332 1138 364 1175 z m 64 489 b 526 -15 64 193 250 -15 b 989 489 803 -15 989 193 b 526 986 989 781 803 986 b 64 489 249 986 64 781 z m 871 486 b 526 85 871 254 738 85 b 182 486 317 85 182 254 b 526 886 182 717 317 886 b 871 486 738 886 871 717 z "},"Œ":{"ha":1628,"x_min":0,"x_max":0,"o":"m 1554 869 l 1554 972 l 876 972 l 876 829 b 526 986 794 928 674 986 b 64 489 249 986 64 781 b 526 -15 64 193 250 -15 b 876 143 674 -15 794 43 l 876 0 l 1554 0 l 1554 103 l 994 103 l 994 451 l 1524 451 l 1524 550 l 994 550 l 994 869 z m 526 85 b 182 486 317 85 182 254 b 526 886 182 717 317 886 b 871 486 738 886 871 717 b 526 85 871 254 738 85 z "},"P":{"ha":894,"x_min":0,"x_max":0,"o":"m 578 972 l 121 972 l 121 0 l 238 0 l 238 410 l 593 410 b 857 701 733 410 857 521 b 578 972 857 867 729 972 z m 558 504 l 238 504 l 238 878 l 553 878 b 739 701 664 878 739 814 b 558 504 739 575 667 504 z "},"Þ":{"ha":911,"x_min":0,"x_max":0,"o":"m 578 789 l 238 789 l 238 972 l 121 972 l 121 0 l 238 0 l 238 226 l 593 226 b 857 517 733 226 857 338 b 578 789 857 683 729 789 z m 558 321 l 238 321 l 238 694 l 553 694 b 739 517 664 694 739 629 b 558 321 739 392 667 321 z "},"Q":{"ha":1056,"x_min":0,"x_max":0,"o":"m 989 490 b 526 988 989 782 803 988 b 64 490 249 988 64 782 b 526 -14 64 194 250 -14 b 749 39 610 -14 685 6 l 839 -56 l 986 -56 l 835 100 b 989 490 932 190 989 326 z m 526 86 b 182 488 317 86 182 256 b 526 888 182 718 317 888 b 871 488 738 888 871 718 b 758 179 871 360 831 251 l 550 394 l 411 394 l 674 118 b 526 86 631 97 581 86 z "},"R":{"ha":965,"x_min":0,"x_max":0,"o":"m 668 442 b 876 700 782 457 876 531 b 572 972 876 888 758 972 l 121 972 l 121 3 l 238 3 l 238 418 l 553 418 b 783 0 736 418 714 167 l 919 0 b 668 442 828 168 832 428 z m 238 515 l 238 874 l 563 874 b 760 694 708 874 760 806 b 563 515 760 583 708 515 z "},"Ŕ":{"ha":965,"x_min":0,"x_max":0,"o":"m 785 1285 l 622 1285 l 421 1056 l 517 1056 z m 668 442 b 876 700 782 457 876 531 b 572 972 876 888 758 972 l 121 972 l 121 3 l 238 3 l 238 418 l 553 418 b 783 0 736 418 714 167 l 919 0 b 668 442 828 168 832 428 z m 238 515 l 238 874 l 563 874 b 760 694 708 874 760 806 b 563 515 760 583 708 515 z "},"Ř":{"ha":965,"x_min":0,"x_max":0,"o":"m 426 1056 l 574 1056 l 763 1285 l 656 1285 l 500 1117 l 346 1285 l 238 1285 z m 668 442 b 876 700 782 457 876 531 b 572 972 876 888 758 972 l 121 972 l 121 3 l 238 3 l 238 418 l 553 418 b 783 0 736 418 714 167 l 919 0 b 668 442 828 168 832 428 z m 238 515 l 238 874 l 563 874 b 760 694 708 874 760 806 b 563 515 760 583 708 515 z "},"Ŗ":{"ha":965,"x_min":0,"x_max":0,"o":"m 668 442 b 876 700 782 457 876 531 b 572 972 876 888 758 972 l 121 972 l 121 3 l 238 3 l 238 418 l 553 418 b 783 0 736 418 714 167 l 919 0 b 668 442 828 168 832 428 z m 238 515 l 238 874 l 563 874 b 760 694 708 874 760 806 b 563 515 760 583 708 515 z m 440 -162 l 499 -162 b 453 -233 499 -203 488 -233 l 453 -264 b 547 -162 497 -264 547 -233 l 547 -56 l 440 -56 z "},"S":{"ha":894,"x_min":0,"x_max":0,"o":"m 58 383 b 465 -15 58 118 235 -15 b 839 263 679 -15 839 96 b 472 549 839 456 632 511 b 206 715 313 586 206 613 b 442 890 206 803 282 890 b 685 631 611 890 685 797 l 803 631 b 436 988 803 836 681 988 b 86 708 204 988 86 850 b 433 443 86 529 274 481 b 721 261 615 399 721 371 b 468 82 721 143 597 82 b 176 383 324 82 176 160 z "},"Ś":{"ha":894,"x_min":0,"x_max":0,"o":"m 572 1285 l 371 1056 l 467 1056 l 735 1285 z m 58 383 b 465 -15 58 118 235 -15 b 839 263 679 -15 839 96 b 472 549 839 456 632 511 b 206 715 313 586 206 613 b 442 890 206 803 282 890 b 685 631 611 890 685 797 l 803 631 b 436 988 803 836 681 988 b 86 708 204 988 86 850 b 433 443 86 529 274 481 b 721 261 615 399 721 371 b 468 82 721 143 597 82 b 176 383 324 82 176 160 z "},"Š":{"ha":894,"x_min":0,"x_max":0,"o":"m 375 1056 l 522 1056 l 711 1285 l 604 1285 l 449 1117 l 294 1285 l 186 1285 z m 472 549 b 206 715 313 586 206 613 b 442 890 206 803 282 890 b 685 631 611 890 685 797 l 803 631 b 436 988 803 836 681 988 b 86 708 204 988 86 850 b 433 443 86 529 274 481 b 721 261 615 399 721 371 b 468 82 721 143 597 82 b 176 383 324 82 176 160 l 58 383 b 465 -15 58 118 235 -15 b 839 263 679 -15 839 96 b 472 549 839 456 632 511 z "},"Ş":{"ha":894,"x_min":0,"x_max":0,"o":"m 839 263 b 472 549 839 456 632 511 b 206 715 313 586 206 613 b 442 890 206 803 282 890 b 685 631 611 890 685 797 l 803 631 b 436 988 803 836 681 988 b 86 708 204 988 86 850 b 433 443 86 529 274 481 b 721 261 615 399 721 371 b 468 82 721 143 597 82 b 176 383 324 82 176 160 l 58 383 b 389 -10 58 149 197 17 l 319 -144 l 390 -144 b 471 -111 410 -125 444 -111 b 525 -165 501 -111 525 -136 b 447 -228 525 -201 490 -228 b 364 -185 418 -228 381 -211 l 300 -224 b 444 -292 322 -258 379 -292 b 604 -160 535 -292 604 -235 b 496 -65 604 -106 558 -65 b 413 -97 467 -65 435 -79 l 486 -15 b 839 263 689 -8 839 101 z "},"Ș":{"ha":894,"x_min":0,"x_max":0,"o":"m 472 549 b 206 715 313 586 206 613 b 442 890 206 803 282 890 b 685 631 611 890 685 797 l 803 631 b 436 988 803 836 681 988 b 86 708 204 988 86 850 b 433 443 86 529 274 481 b 721 261 615 399 721 371 b 468 82 721 143 597 82 b 176 383 324 82 176 160 l 58 383 b 465 -15 58 118 235 -15 b 839 263 679 -15 839 96 b 472 549 839 456 632 511 z m 390 -162 l 449 -162 b 403 -233 449 -203 438 -233 l 403 -264 b 497 -162 447 -264 497 -233 l 497 -56 l 390 -56 z "},"T":{"ha":838,"x_min":0,"x_max":0,"o":"m 822 972 l 17 972 l 17 869 l 360 869 l 360 0 l 478 0 l 478 869 l 822 869 z "},"Ŧ":{"ha":838,"x_min":0,"x_max":0,"o":"m 822 869 l 822 972 l 17 972 l 17 869 l 360 869 l 360 553 l 160 553 l 160 474 l 360 474 l 360 0 l 478 0 l 478 474 l 679 474 l 679 553 l 478 553 l 478 869 z "},"Ť":{"ha":838,"x_min":0,"x_max":0,"o":"m 346 1056 l 493 1056 l 682 1285 l 575 1285 l 419 1117 l 265 1285 l 157 1285 z m 822 972 l 17 972 l 17 869 l 360 869 l 360 0 l 478 0 l 478 869 l 822 869 z "},"Ţ":{"ha":838,"x_min":0,"x_max":0,"o":"m 478 0 l 478 869 l 822 869 l 822 972 l 17 972 l 17 869 l 360 869 l 360 0 l 401 0 l 310 -144 l 381 -144 b 463 -111 400 -125 435 -111 b 515 -165 493 -111 515 -136 b 438 -228 515 -201 481 -228 b 354 -185 408 -228 372 -211 l 290 -224 b 436 -292 313 -258 371 -292 b 594 -160 525 -292 594 -235 b 489 -65 594 -106 547 -65 b 404 -96 461 -65 426 -78 l 467 0 z "},"Ț":{"ha":838,"x_min":0,"x_max":0,"o":"m 822 972 l 17 972 l 17 869 l 360 869 l 360 0 l 478 0 l 478 869 l 822 869 z m 365 -162 l 424 -162 b 378 -233 424 -203 413 -233 l 378 -264 b 472 -162 422 -264 472 -233 l 472 -56 l 365 -56 z "},"U":{"ha":1006,"x_min":0,"x_max":0,"o":"m 111 346 b 508 -15 111 126 292 -15 b 894 346 722 -15 894 126 l 894 972 l 776 972 l 776 350 b 508 83 776 188 660 83 b 229 350 357 83 233 188 l 229 972 l 111 972 z "},"Ú":{"ha":1006,"x_min":0,"x_max":0,"o":"m 621 1285 l 419 1056 l 515 1056 l 783 1285 z m 111 346 b 508 -15 111 126 292 -15 b 894 346 722 -15 894 126 l 894 972 l 776 972 l 776 350 b 508 83 776 188 660 83 b 229 350 357 83 233 188 l 229 972 l 111 972 z "},"Û":{"ha":1006,"x_min":0,"x_max":0,"o":"m 497 1224 l 653 1056 l 760 1056 l 571 1285 l 424 1285 l 235 1056 l 342 1056 z m 776 972 l 776 350 b 508 83 776 188 660 83 b 229 350 357 83 233 188 l 229 972 l 111 972 l 111 346 b 508 -15 111 126 292 -15 b 894 346 722 -15 894 126 l 894 972 z "},"Ü":{"ha":1006,"x_min":0,"x_max":0,"o":"m 260 1158 b 336 1082 260 1115 292 1082 b 413 1158 378 1082 413 1115 b 336 1236 413 1201 378 1236 b 260 1158 292 1236 260 1201 z m 586 1158 b 661 1082 586 1115 618 1082 b 739 1158 704 1082 739 1115 b 661 1236 739 1201 704 1236 b 586 1158 618 1236 586 1201 z m 111 346 b 508 -15 111 126 292 -15 b 894 346 722 -15 894 126 l 894 972 l 776 972 l 776 350 b 508 83 776 188 660 83 b 229 350 357 83 233 188 l 229 972 l 111 972 z "},"Ù":{"ha":1006,"x_min":0,"x_max":0,"o":"m 375 1271 l 213 1271 l 481 1042 l 576 1042 z m 111 346 b 508 -15 111 126 292 -15 b 894 346 722 -15 894 126 l 894 972 l 776 972 l 776 350 b 508 83 776 188 660 83 b 229 350 357 83 233 188 l 229 972 l 111 972 z "},"Ű":{"ha":1006,"x_min":0,"x_max":0,"o":"m 488 1285 l 286 1056 l 382 1056 l 650 1285 z m 739 1285 l 538 1056 l 633 1056 l 901 1285 z m 111 346 b 508 -15 111 126 292 -15 b 894 346 722 -15 894 126 l 894 972 l 776 972 l 776 350 b 508 83 776 188 660 83 b 229 350 357 83 233 188 l 229 972 l 111 972 z "},"Ū":{"ha":1006,"x_min":0,"x_max":0,"o":"m 206 1135 l 206 1056 l 789 1056 l 789 1135 z m 111 346 b 508 -15 111 126 292 -15 b 894 346 722 -15 894 126 l 894 972 l 776 972 l 776 350 b 508 83 776 188 660 83 b 229 350 357 83 233 188 l 229 972 l 111 972 z "},"Ų":{"ha":1006,"x_min":0,"x_max":0,"o":"m 776 972 l 776 350 b 508 83 776 188 660 83 b 229 350 357 83 233 188 l 229 972 l 111 972 l 111 346 b 508 -15 111 126 292 -15 l 519 -15 b 463 -132 488 -47 463 -96 b 581 -235 463 -190 506 -235 b 675 -203 617 -235 653 -224 l 675 -146 b 610 -174 658 -165 642 -174 b 560 -115 576 -174 560 -144 b 607 -4 560 -75 574 -44 b 894 346 774 32 894 161 l 894 972 z "},"Ů":{"ha":1006,"x_min":0,"x_max":0,"o":"m 325 1222 b 497 1050 325 1128 403 1050 b 669 1222 592 1050 669 1128 b 497 1394 669 1317 592 1394 b 325 1222 403 1394 325 1317 z m 604 1222 b 497 1117 604 1164 556 1117 b 392 1222 439 1117 392 1164 b 497 1329 392 1281 439 1329 b 604 1222 556 1329 604 1281 z m 111 346 b 508 -15 111 126 292 -15 b 894 346 722 -15 894 126 l 894 972 l 776 972 l 776 350 b 508 83 776 188 660 83 b 229 350 357 83 233 188 l 229 972 l 111 972 z "},"V":{"ha":915,"x_min":0,"x_max":0,"o":"m 776 972 l 458 74 l 138 972 l 18 972 l 365 0 l 550 0 l 896 972 z "},"W":{"ha":1365,"x_min":0,"x_max":0,"o":"m 1221 972 l 983 82 l 765 972 l 599 972 l 382 82 l 144 972 l 28 972 l 286 0 l 468 0 l 683 879 l 899 0 l 1079 0 l 1339 972 z "},"Ẃ":{"ha":1365,"x_min":0,"x_max":0,"o":"m 969 1285 l 807 1285 l 606 1056 l 701 1056 z m 1221 972 l 983 82 l 765 972 l 599 972 l 382 82 l 144 972 l 28 972 l 286 0 l 468 0 l 683 879 l 899 0 l 1079 0 l 1339 972 z "},"Ŵ":{"ha":1365,"x_min":0,"x_max":0,"o":"m 682 1224 l 838 1056 l 944 1056 l 756 1285 l 608 1285 l 419 1056 l 526 1056 z m 1221 972 l 983 82 l 765 972 l 599 972 l 382 82 l 144 972 l 28 972 l 286 0 l 468 0 l 683 879 l 899 0 l 1079 0 l 1339 972 z "},"Ẅ":{"ha":1365,"x_min":0,"x_max":0,"o":"m 521 1082 b 597 1158 563 1082 597 1115 b 521 1236 597 1201 563 1236 b 444 1158 476 1236 444 1201 b 521 1082 444 1115 476 1082 z m 846 1082 b 924 1158 889 1082 924 1115 b 846 1236 924 1201 889 1236 b 771 1158 803 1236 771 1201 b 846 1082 771 1115 803 1082 z m 1221 972 l 983 82 l 765 972 l 599 972 l 382 82 l 144 972 l 28 972 l 286 0 l 468 0 l 683 879 l 899 0 l 1079 0 l 1339 972 z "},"Ẁ":{"ha":1365,"x_min":0,"x_max":0,"o":"m 763 1042 l 561 1271 l 399 1271 l 667 1042 z m 1221 972 l 983 82 l 765 972 l 599 972 l 382 82 l 144 972 l 28 972 l 286 0 l 468 0 l 683 879 l 899 0 l 1079 0 l 1339 972 z "},"X":{"ha":900,"x_min":0,"x_max":0,"o":"m 890 0 l 519 490 l 885 972 l 746 972 l 450 582 l 154 972 l 15 972 l 381 490 l 8 0 l 147 0 l 450 399 l 753 0 z "},"Y":{"ha":960,"x_min":0,"x_max":0,"o":"m 942 972 l 799 972 l 481 533 l 160 972 l 17 972 l 419 435 l 419 0 l 540 0 l 540 435 z "},"Ý":{"ha":960,"x_min":0,"x_max":0,"o":"m 606 1285 l 404 1056 l 500 1056 l 768 1285 z m 942 972 l 799 972 l 481 533 l 160 972 l 17 972 l 419 435 l 419 0 l 540 0 l 540 435 z "},"Ŷ":{"ha":960,"x_min":0,"x_max":0,"o":"m 481 1224 l 636 1056 l 743 1056 l 554 1285 l 407 1285 l 218 1056 l 325 1056 z m 799 972 l 481 533 l 160 972 l 17 972 l 419 435 l 419 0 l 540 0 l 540 435 l 942 972 z "},"Ÿ":{"ha":960,"x_min":0,"x_max":0,"o":"m 243 1158 b 319 1082 243 1115 275 1082 b 396 1158 361 1082 396 1115 b 319 1236 396 1201 361 1236 b 243 1158 275 1236 243 1201 z m 569 1158 b 644 1082 569 1115 601 1082 b 722 1158 688 1082 722 1115 b 644 1236 722 1201 688 1236 b 569 1158 601 1236 569 1201 z m 942 972 l 799 972 l 481 533 l 160 972 l 17 972 l 419 435 l 419 0 l 540 0 l 540 435 z "},"Ỳ":{"ha":960,"x_min":0,"x_max":0,"o":"m 360 1271 l 197 1271 l 465 1042 l 561 1042 z m 942 972 l 799 972 l 481 533 l 160 972 l 17 972 l 419 435 l 419 0 l 540 0 l 540 435 z "},"Z":{"ha":894,"x_min":0,"x_max":0,"o":"m 163 100 l 838 826 l 838 972 l 56 972 l 56 874 l 740 874 l 57 146 l 57 0 l 839 0 l 839 100 z "},"Ź":{"ha":894,"x_min":0,"x_max":0,"o":"m 733 1285 l 571 1285 l 369 1056 l 465 1056 z m 163 100 l 838 826 l 838 972 l 56 972 l 56 874 l 740 874 l 57 146 l 57 0 l 839 0 l 839 100 z "},"Ž":{"ha":894,"x_min":0,"x_max":0,"o":"m 374 1056 l 521 1056 l 710 1285 l 603 1285 l 447 1117 l 293 1285 l 185 1285 z m 163 100 l 838 826 l 838 972 l 56 972 l 56 874 l 740 874 l 57 146 l 57 0 l 839 0 l 839 100 z "},"Ż":{"ha":894,"x_min":0,"x_max":0,"o":"m 449 1063 b 528 1142 492 1063 528 1099 b 449 1219 528 1185 492 1219 b 369 1142 404 1219 369 1185 b 449 1063 369 1099 404 1063 z m 163 100 l 838 826 l 838 972 l 56 972 l 56 874 l 740 874 l 57 146 l 57 0 l 839 0 l 839 100 z "},"a":{"ha":861,"x_min":0,"x_max":0,"o":"m 653 729 l 653 578 b 383 744 599 682 503 744 b 57 368 185 744 57 588 b 390 -15 57 143 192 -15 b 653 146 508 -15 600 46 l 653 0 l 761 0 l 761 729 z m 407 75 b 168 365 261 75 168 199 b 407 654 168 533 261 654 b 653 367 549 654 653 542 b 407 75 653 193 549 75 z "},"á":{"ha":861,"x_min":0,"x_max":0,"o":"m 699 1028 l 536 1028 l 335 799 l 431 799 z m 653 729 l 653 578 b 383 744 599 682 503 744 b 57 368 185 744 57 588 b 390 -15 57 143 192 -15 b 653 146 508 -15 600 46 l 653 0 l 761 0 l 761 729 z m 407 75 b 168 365 261 75 168 199 b 407 654 168 533 261 654 b 653 367 549 654 653 542 b 407 75 653 193 549 75 z "},"ă":{"ha":854,"x_min":0,"x_max":0,"o":"m 413 797 b 660 1028 558 797 657 889 l 569 1028 b 413 869 568 935 504 869 b 254 1028 321 869 256 935 l 165 1028 b 413 797 168 889 267 797 z m 653 729 l 653 578 b 383 744 599 682 503 744 b 57 368 185 744 57 588 b 390 -15 57 143 192 -15 b 653 146 508 -15 600 46 l 653 0 l 761 0 l 761 729 z m 407 75 b 168 365 261 75 168 199 b 407 654 168 533 261 654 b 653 367 549 654 653 542 b 407 75 653 193 549 75 z "},"â":{"ha":861,"x_min":0,"x_max":0,"o":"m 411 967 l 565 799 l 674 799 l 485 1028 l 338 1028 l 149 799 l 256 799 z m 653 729 l 653 578 b 383 744 599 682 503 744 b 57 368 185 744 57 588 b 390 -15 57 143 192 -15 b 653 146 508 -15 600 46 l 653 0 l 761 0 l 761 729 z m 407 75 b 168 365 261 75 168 199 b 407 654 168 533 261 654 b 653 367 549 654 653 542 b 407 75 653 193 549 75 z "},"ä":{"ha":861,"x_min":0,"x_max":0,"o":"m 250 831 b 326 907 292 831 326 864 b 250 985 326 950 292 985 b 174 907 206 985 174 950 b 250 831 174 864 206 831 z m 575 831 b 653 907 618 831 653 864 b 575 985 653 950 618 985 b 500 907 532 985 500 950 b 575 831 500 864 532 831 z m 653 729 l 653 578 b 383 744 599 682 503 744 b 57 368 185 744 57 588 b 390 -15 57 143 192 -15 b 653 146 508 -15 600 46 l 653 0 l 761 0 l 761 729 z m 407 75 b 168 365 261 75 168 199 b 407 654 168 533 261 654 b 653 367 549 654 653 542 b 407 75 653 193 549 75 z "},"à":{"ha":861,"x_min":0,"x_max":0,"o":"m 490 799 l 289 1028 l 126 1028 l 394 799 z m 653 729 l 653 578 b 383 744 599 682 503 744 b 57 368 185 744 57 588 b 390 -15 57 143 192 -15 b 653 146 508 -15 600 46 l 653 0 l 761 0 l 761 729 z m 407 75 b 168 365 261 75 168 199 b 407 654 168 533 261 654 b 653 367 549 654 653 542 b 407 75 653 193 549 75 z "},"ā":{"ha":861,"x_min":0,"x_max":0,"o":"m 704 878 l 121 878 l 121 799 l 704 799 z m 653 729 l 653 578 b 383 744 599 682 503 744 b 57 368 185 744 57 588 b 390 -15 57 143 192 -15 b 653 146 508 -15 600 46 l 653 0 l 761 0 l 761 729 z m 407 75 b 168 365 261 75 168 199 b 407 654 168 533 261 654 b 653 367 549 654 653 542 b 407 75 653 193 549 75 z "},"ą":{"ha":808,"x_min":0,"x_max":0,"o":"m 707 -174 b 658 -115 675 -174 658 -146 b 711 0 658 -74 672 -43 l 761 0 l 761 729 l 653 729 l 653 578 b 383 744 599 682 503 744 b 57 368 185 744 57 588 b 390 -15 57 143 192 -15 b 653 146 508 -15 600 46 l 653 0 l 624 0 b 560 -132 586 -29 560 -89 b 678 -235 560 -190 604 -235 b 772 -203 715 -235 751 -225 l 772 -146 b 707 -174 757 -165 739 -174 z m 407 75 b 168 365 261 75 168 199 b 407 654 168 533 261 654 b 653 367 549 654 653 542 b 407 75 653 193 549 75 z "},"å":{"ha":861,"x_min":0,"x_max":0,"o":"m 410 794 b 582 967 504 794 582 872 b 410 1139 582 1061 504 1139 b 238 967 315 1139 238 1061 b 410 794 238 872 315 794 z m 410 1074 b 517 967 469 1074 517 1025 b 410 861 517 908 469 861 b 306 967 351 861 306 908 b 410 1074 306 1025 351 1074 z m 653 729 l 653 578 b 383 744 599 682 503 744 b 57 368 185 744 57 588 b 390 -15 57 143 192 -15 b 653 146 508 -15 600 46 l 653 0 l 761 0 l 761 729 z m 407 75 b 168 365 261 75 168 199 b 407 654 168 533 261 654 b 653 367 549 654 653 542 b 407 75 653 193 549 75 z "},"ã":{"ha":861,"x_min":0,"x_max":0,"o":"m 288 915 b 528 818 363 915 443 818 b 685 978 593 818 685 861 l 619 978 b 539 900 615 940 592 900 b 299 997 474 900 393 997 b 139 838 222 997 139 946 l 204 838 b 288 915 210 878 242 915 z m 653 729 l 653 578 b 383 744 599 682 503 744 b 57 368 185 744 57 588 b 390 -15 57 143 192 -15 b 653 146 508 -15 600 46 l 653 0 l 761 0 l 761 729 z m 407 75 b 168 365 261 75 168 199 b 407 654 168 533 261 654 b 653 367 549 654 653 542 b 407 75 653 193 549 75 z "},"æ":{"ha":1321,"x_min":0,"x_max":0,"o":"m 933 74 b 686 349 785 74 686 190 l 1271 349 b 922 744 1267 576 1132 744 b 656 615 808 744 717 694 b 394 744 604 703 504 744 b 79 443 210 744 83 632 l 192 443 b 394 657 192 588 281 657 b 582 521 531 657 578 568 b 76 179 349 438 76 375 b 324 -12 76 75 172 -12 b 593 236 476 -12 556 101 b 939 -15 638 86 764 -15 b 1247 181 1103 -15 1207 75 l 1151 222 b 933 74 1118 118 1026 74 z m 921 656 b 1153 432 1028 656 1133 583 l 692 432 b 921 656 710 564 804 656 z m 332 81 b 186 185 243 81 186 128 b 578 425 186 299 363 353 l 578 407 b 575 385 576 400 576 392 b 332 81 565 271 514 81 z "},"b":{"ha":875,"x_min":0,"x_max":0,"o":"m 488 744 b 218 550 365 744 257 665 l 218 972 l 107 972 l 107 0 l 217 0 l 217 174 b 479 -15 265 60 364 -15 b 817 368 675 -15 817 147 b 488 744 817 585 676 744 z m 464 72 b 215 353 321 72 215 194 b 464 657 215 532 321 657 b 706 368 603 657 706 533 b 464 72 706 199 603 72 z "},"c":{"ha":806,"x_min":0,"x_max":0,"o":"m 57 365 b 413 -15 57 153 210 -15 b 753 265 607 -15 750 103 l 642 265 b 415 75 639 154 543 75 b 168 365 276 75 168 206 b 414 656 168 529 276 656 b 642 449 539 656 638 569 l 753 449 b 413 744 747 622 603 744 b 57 365 210 744 57 582 z "},"ć":{"ha":806,"x_min":0,"x_max":0,"o":"m 528 1028 l 326 799 l 422 799 l 690 1028 z m 57 365 b 413 -15 57 153 210 -15 b 753 265 607 -15 750 103 l 642 265 b 415 75 639 154 543 75 b 168 365 276 75 168 206 b 414 656 168 529 276 656 b 642 449 539 656 638 569 l 753 449 b 413 744 747 622 603 744 b 57 365 210 744 57 582 z "},"č":{"ha":806,"x_min":0,"x_max":0,"o":"m 343 799 l 489 799 l 678 1028 l 571 1028 l 417 861 l 261 1028 l 154 1028 z m 415 75 b 168 365 276 75 168 206 b 414 656 168 529 276 656 b 642 449 539 656 638 569 l 753 449 b 413 744 747 622 603 744 b 57 365 210 744 57 582 b 413 -15 57 153 210 -15 b 753 265 607 -15 750 103 l 642 265 b 415 75 639 154 543 75 z "},"ç":{"ha":806,"x_min":0,"x_max":0,"o":"m 415 75 b 168 365 276 75 168 206 b 414 656 168 529 276 656 b 642 449 539 656 638 569 l 753 449 b 413 744 747 622 603 744 b 57 365 210 744 57 582 b 360 -11 57 172 183 15 l 275 -144 l 346 -144 b 428 -111 365 -125 400 -111 b 481 -165 458 -111 481 -136 b 403 -228 481 -201 446 -228 b 319 -185 374 -228 338 -211 l 256 -224 b 401 -292 278 -258 336 -292 b 560 -160 490 -292 560 -235 b 454 -65 560 -106 513 -65 b 369 -96 426 -65 392 -78 l 422 -15 b 753 265 611 -11 750 106 l 642 265 b 415 75 639 154 543 75 z "},"ċ":{"ha":806,"x_min":0,"x_max":0,"o":"m 329 908 b 408 829 329 864 364 829 b 488 908 451 829 488 864 b 408 986 488 951 451 986 b 329 908 364 986 329 951 z m 57 365 b 413 -15 57 153 210 -15 b 753 265 607 -15 750 103 l 642 265 b 415 75 639 154 543 75 b 168 365 276 75 168 206 b 414 656 168 529 276 656 b 642 449 539 656 638 569 l 753 449 b 413 744 747 622 603 744 b 57 365 210 744 57 582 z "},"d":{"ha":875,"x_min":0,"x_max":0,"o":"m 657 972 l 657 551 b 389 744 617 665 510 744 b 58 368 199 744 58 585 b 396 -15 58 147 200 -15 b 658 172 510 -15 610 58 l 658 0 l 768 0 l 768 972 z m 411 72 b 169 368 272 72 169 199 b 411 657 169 533 272 657 b 660 353 554 657 660 532 b 411 72 660 194 554 72 z "},"ð":{"ha":779,"x_min":0,"x_max":0,"o":"m 458 985 l 536 1063 l 481 1117 l 394 1032 b 121 1111 318 1079 228 1110 l 121 1018 b 325 961 197 1017 265 994 l 210 847 l 265 790 l 390 917 b 589 589 510 821 579 681 b 363 744 571 642 511 744 b 58 361 190 744 58 576 b 374 -15 58 147 189 -15 b 711 404 579 -15 711 150 b 458 985 711 586 632 836 z m 388 69 b 169 368 258 69 169 206 b 381 660 169 526 257 660 b 610 368 550 660 610 515 b 388 69 610 206 519 69 z "},"ď":{"ha":904,"x_min":0,"x_max":0,"o":"m 657 551 b 389 744 617 665 510 744 b 58 368 199 744 58 585 b 396 -15 58 147 200 -15 b 658 172 510 -15 610 58 l 658 0 l 768 0 l 768 972 l 657 972 z m 849 972 l 849 865 l 907 865 b 861 794 907 825 896 794 l 861 764 b 954 865 906 764 954 794 l 954 972 z m 411 72 b 169 368 272 72 169 199 b 411 657 169 533 272 657 b 660 353 554 657 660 532 b 411 72 660 194 554 72 z "},"đ":{"ha":875,"x_min":0,"x_max":0,"o":"m 865 882 l 768 882 l 768 972 l 657 972 l 657 882 l 418 882 l 418 803 l 657 803 l 657 551 b 389 744 617 665 510 744 b 58 368 199 744 58 585 b 396 -15 58 147 200 -15 b 658 172 510 -15 610 58 l 658 0 l 768 0 l 768 803 l 865 803 z m 411 72 b 169 368 272 72 169 199 b 411 657 169 533 272 657 b 660 353 554 657 660 532 b 411 72 660 194 554 72 z "},"e":{"ha":803,"x_min":0,"x_max":0,"o":"m 57 361 b 421 -15 57 144 201 -15 b 729 181 585 -15 689 75 l 633 222 b 415 74 600 118 508 74 b 168 349 267 74 168 190 l 753 349 b 404 744 749 576 614 744 b 57 361 193 744 57 572 z m 635 432 l 174 432 b 403 656 192 564 286 656 b 635 432 510 656 615 583 z "},"é":{"ha":803,"x_min":0,"x_max":0,"o":"m 528 1028 l 326 799 l 422 799 l 690 1028 z m 57 361 b 421 -15 57 144 201 -15 b 729 181 585 -15 689 75 l 633 222 b 415 74 600 118 508 74 b 168 349 267 74 168 190 l 753 349 b 404 744 749 576 614 744 b 57 361 193 744 57 572 z m 635 432 l 174 432 b 403 656 192 564 286 656 b 635 432 510 656 615 583 z "},"ě":{"ha":803,"x_min":0,"x_max":0,"o":"m 336 799 l 483 799 l 672 1028 l 565 1028 l 410 860 l 256 1028 l 147 1028 z m 415 74 b 168 349 267 74 168 190 l 753 349 b 404 744 749 576 614 744 b 57 361 193 744 57 572 b 421 -15 57 144 201 -15 b 729 181 585 -15 689 75 l 633 222 b 415 74 600 118 508 74 z m 403 656 b 635 432 510 656 615 583 l 174 432 b 403 656 192 564 286 656 z "},"ê":{"ha":803,"x_min":0,"x_max":0,"o":"m 408 965 l 563 799 l 669 799 l 481 1028 l 335 1028 l 146 799 l 253 799 z m 415 74 b 168 349 267 74 168 190 l 753 349 b 404 744 749 576 614 744 b 57 361 193 744 57 572 b 421 -15 57 144 201 -15 b 729 181 585 -15 689 75 l 633 222 b 415 74 600 118 508 74 z m 403 656 b 635 432 510 656 615 583 l 174 432 b 403 656 192 564 286 656 z "},"ë":{"ha":803,"x_min":0,"x_max":0,"o":"m 165 907 b 242 831 165 864 197 831 b 318 907 283 831 318 864 b 242 985 318 950 283 985 b 165 907 197 985 165 950 z m 492 907 b 567 831 492 864 524 831 b 644 907 610 831 644 864 b 567 985 644 950 610 985 b 492 907 524 985 492 950 z m 57 361 b 421 -15 57 144 201 -15 b 729 181 585 -15 689 75 l 633 222 b 415 74 600 118 508 74 b 168 349 267 74 168 190 l 753 349 b 404 744 749 576 614 744 b 57 361 193 744 57 572 z m 635 432 l 174 432 b 403 656 192 564 286 656 b 635 432 510 656 615 583 z "},"ė":{"ha":803,"x_min":0,"x_max":0,"o":"m 325 908 b 404 829 325 864 360 829 b 483 908 447 829 483 864 b 404 986 483 951 447 986 b 325 908 360 986 325 951 z m 57 361 b 421 -15 57 144 201 -15 b 729 181 585 -15 689 75 l 633 222 b 415 74 600 118 508 74 b 168 349 267 74 168 190 l 753 349 b 404 744 749 576 614 744 b 57 361 193 744 57 572 z m 635 432 l 174 432 b 403 656 192 564 286 656 b 635 432 510 656 615 583 z "},"è":{"ha":803,"x_min":0,"x_max":0,"o":"m 282 1028 l 119 1028 l 388 799 l 483 799 z m 57 361 b 421 -15 57 144 201 -15 b 729 181 585 -15 689 75 l 633 222 b 415 74 600 118 508 74 b 168 349 267 74 168 190 l 753 349 b 404 744 749 576 614 744 b 57 361 193 744 57 572 z m 635 432 l 174 432 b 403 656 192 564 286 656 b 635 432 510 656 615 583 z "},"ē":{"ha":803,"x_min":0,"x_max":0,"o":"m 113 878 l 113 799 l 696 799 l 696 878 z m 57 361 b 421 -15 57 144 201 -15 b 729 181 585 -15 689 75 l 633 222 b 415 74 600 118 508 74 b 168 349 267 74 168 190 l 753 349 b 404 744 749 576 614 744 b 57 361 193 744 57 572 z m 635 432 l 174 432 b 403 656 192 564 286 656 b 635 432 510 656 615 583 z "},"ę":{"ha":803,"x_min":0,"x_max":0,"o":"m 415 74 b 168 349 267 74 168 190 l 753 349 b 404 744 749 576 614 744 b 57 361 193 744 57 572 b 421 -15 57 144 201 -15 l 426 -15 b 368 -133 394 -47 368 -97 b 486 -236 368 -192 411 -236 b 581 -204 522 -236 558 -225 l 581 -147 b 515 -175 564 -167 547 -175 b 465 -117 482 -175 465 -146 b 514 -4 465 -76 479 -46 b 729 181 625 22 697 97 l 633 222 b 415 74 600 118 508 74 z m 403 656 b 635 432 510 656 615 583 l 174 432 b 403 656 192 564 286 656 z "},"f":{"ha":551,"x_min":0,"x_max":0,"o":"m 414 897 b 542 843 468 897 511 876 l 542 926 b 386 988 511 964 450 988 b 193 744 242 988 193 883 l 193 729 l 13 729 l 13 642 l 193 642 l 193 0 l 304 0 l 304 642 l 542 642 l 542 729 l 304 729 l 304 744 b 414 897 304 861 342 897 z "},"g":{"ha":850,"x_min":0,"x_max":0,"o":"m 632 728 l 632 592 b 386 744 604 679 508 744 b 58 372 197 744 58 586 b 393 17 58 167 201 17 b 636 179 508 17 599 83 l 636 44 b 418 -182 636 -106 535 -182 b 207 -18 311 -182 210 -117 l 96 -18 b 419 -267 101 -167 249 -267 b 743 44 599 -267 743 -160 l 743 728 z m 411 93 b 169 375 297 93 169 186 b 408 665 169 540 265 665 b 642 372 561 665 642 522 b 411 93 642 201 535 93 z "},"ğ":{"ha":850,"x_min":0,"x_max":0,"o":"m 408 797 b 657 1028 554 797 654 889 l 567 1028 b 408 869 564 935 500 869 b 250 1028 317 869 253 935 l 161 1028 b 408 797 164 889 264 797 z m 632 728 l 632 592 b 386 744 604 679 508 744 b 58 372 197 744 58 586 b 393 17 58 167 201 17 b 636 179 508 17 599 83 l 636 44 b 418 -182 636 -106 535 -182 b 207 -18 311 -182 210 -117 l 96 -18 b 419 -267 101 -167 249 -267 b 743 44 599 -267 743 -160 l 743 728 z m 411 93 b 169 375 297 93 169 186 b 408 665 169 540 265 665 b 642 372 561 665 642 522 b 411 93 642 201 535 93 z "},"ģ":{"ha":850,"x_min":0,"x_max":0,"o":"m 460 958 l 401 958 b 447 1029 401 999 413 1029 l 447 1061 b 353 958 403 1061 353 1029 l 353 851 l 460 851 z m 632 728 l 632 592 b 386 744 604 679 508 744 b 58 372 197 744 58 586 b 393 17 58 167 201 17 b 636 179 508 17 599 83 l 636 44 b 418 -182 636 -106 535 -182 b 207 -18 311 -182 210 -117 l 96 -18 b 419 -267 101 -167 249 -267 b 743 44 599 -267 743 -160 l 743 728 z m 411 93 b 169 375 297 93 169 186 b 408 665 169 540 265 665 b 642 372 561 665 642 522 b 411 93 642 201 535 93 z "},"ġ":{"ha":850,"x_min":0,"x_max":0,"o":"m 411 829 b 490 908 454 829 490 864 b 411 986 490 951 454 986 b 332 908 367 986 332 951 b 411 829 332 864 367 829 z m 632 728 l 632 592 b 386 744 604 679 508 744 b 58 372 197 744 58 586 b 393 17 58 167 201 17 b 636 179 508 17 599 83 l 636 44 b 418 -182 636 -106 535 -182 b 207 -18 311 -182 210 -117 l 96 -18 b 419 -267 101 -167 249 -267 b 743 44 599 -267 743 -160 l 743 728 z m 411 93 b 169 375 297 93 169 186 b 408 665 169 540 265 665 b 642 372 561 665 642 522 b 411 93 642 201 535 93 z "},"h":{"ha":836,"x_min":0,"x_max":0,"o":"m 488 744 b 218 507 342 744 251 631 l 218 972 l 107 972 l 107 0 l 218 0 l 218 340 b 450 647 218 469 301 647 b 626 372 588 647 626 563 l 626 0 l 738 0 l 738 404 b 488 744 738 646 653 744 z "},"ħ":{"ha":836,"x_min":0,"x_max":0,"o":"m 488 744 b 218 507 342 744 251 631 l 218 803 l 458 803 l 458 882 l 218 882 l 218 972 l 107 972 l 107 882 l 10 882 l 10 803 l 107 803 l 107 0 l 218 0 l 218 340 b 450 647 218 469 301 647 b 626 372 588 647 626 563 l 626 0 l 738 0 l 738 404 b 488 744 738 646 653 744 z "},"i":{"ha":325,"x_min":0,"x_max":0,"o":"m 81 907 b 163 825 81 860 115 825 b 243 907 208 825 243 860 b 163 988 243 953 208 988 b 81 907 115 988 81 953 z m 107 729 l 107 0 l 218 0 l 218 729 z "},"ı":{"ha":325,"x_min":0,"x_max":0,"o":"m 107 729 l 107 0 l 218 0 l 218 729 z "},"í":{"ha":325,"x_min":0,"x_max":0,"o":"m 285 1028 l 83 799 l 179 799 l 447 1028 z m 107 729 l 107 0 l 218 0 l 218 729 z "},"î":{"ha":325,"x_min":0,"x_max":0,"o":"m 233 1028 l 88 1028 l -101 799 l 6 799 l 161 965 l 315 799 l 422 799 z m 107 0 l 218 0 l 218 729 l 107 729 z "},"ï":{"ha":325,"x_min":0,"x_max":0,"o":"m -78 907 b -1 831 -78 864 -44 831 b 75 907 42 831 75 864 b -1 985 75 950 42 985 b -78 907 -44 985 -78 950 z m 249 907 b 325 831 249 864 281 831 b 403 907 367 831 403 864 b 325 985 403 950 367 985 b 249 907 281 985 249 950 z m 107 729 l 107 0 l 218 0 l 218 729 z "},"ì":{"ha":325,"x_min":0,"x_max":0,"o":"m 39 1028 l -124 1028 l 144 799 l 240 799 z m 107 729 l 107 0 l 218 0 l 218 729 z "},"ī":{"ha":325,"x_min":0,"x_max":0,"o":"m -131 878 l -131 799 l 453 799 l 453 878 z m 107 729 l 107 0 l 218 0 l 218 729 z "},"į":{"ha":325,"x_min":0,"x_max":0,"o":"m 161 829 b 240 908 204 829 240 864 b 161 986 240 951 204 986 b 82 908 117 986 82 951 b 161 829 82 864 117 829 z m 204 -175 b 154 -117 171 -175 154 -146 b 207 0 154 -75 169 -43 l 218 0 l 218 729 l 107 729 l 107 0 l 132 0 b 57 -133 93 -29 57 -90 b 175 -236 57 -192 100 -236 b 269 -204 211 -236 247 -225 l 269 -147 b 204 -175 253 -167 236 -175 z "},"j":{"ha":343,"x_min":0,"x_max":0,"o":"m 100 907 b 181 826 100 861 133 826 b 261 907 226 826 261 861 b 181 989 261 954 226 989 b 100 907 133 989 100 954 z m -112 -189 b 36 -244 -79 -225 -25 -244 b 236 3 154 -244 236 -158 l 236 729 l 125 729 l 125 3 b 17 -151 125 -99 83 -151 b -112 -96 -32 -151 -81 -132 z "},"ȷ":{"ha":343,"x_min":0,"x_max":0,"o":"m -112 -189 b 36 -244 -79 -225 -25 -244 b 236 3 154 -244 236 -158 l 236 729 l 125 729 l 125 3 b 17 -151 125 -99 83 -151 b -112 -96 -32 -151 -81 -132 z "},"k":{"ha":713,"x_min":0,"x_max":0,"o":"m 725 0 l 383 442 l 678 729 l 533 729 l 218 411 l 218 972 l 107 972 l 107 0 l 218 0 l 218 281 l 308 368 l 583 0 z "},"ķ":{"ha":713,"x_min":0,"x_max":0,"o":"m 383 442 l 678 729 l 533 729 l 218 411 l 218 972 l 107 972 l 107 0 l 218 0 l 218 281 l 308 368 l 583 0 l 725 0 z m 319 -162 l 378 -162 b 332 -233 378 -203 367 -233 l 332 -264 b 426 -162 376 -264 426 -233 l 426 -56 l 319 -56 z "},"l":{"ha":325,"x_min":0,"x_max":0,"o":"m 107 972 l 107 0 l 218 0 l 218 972 z "},"ĺ":{"ha":325,"x_min":0,"x_max":0,"o":"m 329 1293 l 128 1064 l 224 1064 l 493 1293 z m 107 972 l 107 0 l 218 0 l 218 972 z "},"ľ":{"ha":354,"x_min":0,"x_max":0,"o":"m 107 0 l 218 0 l 218 972 l 107 972 z m 299 972 l 299 865 l 357 865 b 311 794 357 825 346 794 l 311 764 b 406 865 356 764 406 794 l 406 972 z "},"ļ":{"ha":325,"x_min":0,"x_max":0,"o":"m 107 972 l 107 0 l 218 0 l 218 972 z m 104 -162 l 163 -162 b 117 -233 163 -203 151 -233 l 117 -264 b 211 -162 161 -264 211 -233 l 211 -56 l 104 -56 z "},"ŀ":{"ha":475,"x_min":0,"x_max":0,"o":"m 107 972 l 107 0 l 218 0 l 218 972 z m 313 396 b 399 308 313 349 351 308 b 486 396 447 308 486 349 b 399 482 486 444 447 482 b 313 396 351 482 313 444 z "},"ł":{"ha":382,"x_min":0,"x_max":0,"o":"m 326 615 l 247 549 l 247 972 l 136 972 l 136 461 l 51 389 l 51 281 l 136 351 l 136 0 l 247 0 l 247 439 l 326 506 z "},"m":{"ha":1242,"x_min":0,"x_max":0,"o":"m 928 744 b 675 510 779 744 703 632 b 465 744 661 629 614 744 b 218 531 325 744 250 644 l 218 729 l 107 729 l 107 0 l 218 0 l 218 340 b 415 647 218 482 269 647 b 569 372 569 647 569 467 l 569 0 l 681 0 l 681 340 b 878 647 681 482 732 647 b 1032 372 1032 647 1032 468 l 1032 0 l 1143 0 l 1143 404 b 928 744 1143 549 1122 744 z "},"n":{"ha":836,"x_min":0,"x_max":0,"o":"m 488 744 b 218 507 342 744 251 631 l 218 729 l 107 729 l 107 0 l 218 0 l 218 340 b 450 647 218 469 301 647 b 626 372 588 647 626 563 l 626 0 l 738 0 l 738 404 b 488 744 738 646 653 744 z "},"ń":{"ha":836,"x_min":0,"x_max":0,"o":"m 722 1028 l 560 1028 l 358 799 l 454 799 z m 488 744 b 218 507 342 744 251 631 l 218 729 l 107 729 l 107 0 l 218 0 l 218 340 b 450 647 218 469 301 647 b 626 372 588 647 626 563 l 626 0 l 738 0 l 738 404 b 488 744 738 646 653 744 z "},"ň":{"ha":836,"x_min":0,"x_max":0,"o":"m 364 799 l 511 799 l 700 1028 l 593 1028 l 438 860 l 283 1028 l 175 1028 z m 488 744 b 218 507 342 744 251 631 l 218 729 l 107 729 l 107 0 l 218 0 l 218 340 b 450 647 218 469 301 647 b 626 372 588 647 626 563 l 626 0 l 738 0 l 738 404 b 488 744 738 646 653 744 z "},"ņ":{"ha":836,"x_min":0,"x_max":0,"o":"m 488 744 b 218 507 342 744 251 631 l 218 729 l 107 729 l 107 0 l 218 0 l 218 340 b 450 647 218 469 301 647 b 626 372 588 647 626 563 l 626 0 l 738 0 l 738 404 b 488 744 738 646 653 744 z m 378 -162 l 436 -162 b 390 -233 436 -203 425 -233 l 390 -264 b 485 -162 435 -264 485 -233 l 485 -56 l 378 -56 z "},"ŋ":{"ha":836,"x_min":0,"x_max":0,"o":"m 488 744 b 218 507 342 744 251 631 l 218 729 l 107 729 l 107 0 l 218 0 l 218 340 b 450 647 218 469 301 647 b 626 372 588 647 626 563 l 626 0 b 517 -150 626 -111 589 -150 b 389 -99 460 -150 419 -131 l 389 -192 b 538 -243 424 -225 478 -243 b 738 0 686 -243 738 -128 l 738 404 b 488 744 738 646 653 744 z "},"ñ":{"ha":836,"x_min":0,"x_max":0,"o":"m 301 915 b 542 818 376 915 457 818 b 699 978 607 818 699 861 l 633 978 b 553 900 629 940 606 900 b 313 997 488 900 407 997 b 153 838 236 997 153 947 l 218 838 b 301 915 224 878 256 915 z m 488 744 b 218 507 342 744 251 631 l 218 729 l 107 729 l 107 0 l 218 0 l 218 340 b 450 647 218 469 301 647 b 626 372 588 647 626 563 l 626 0 l 738 0 l 738 404 b 488 744 738 646 653 744 z "},"o":{"ha":831,"x_min":0,"x_max":0,"o":"m 57 365 b 415 -15 57 150 210 -15 b 774 365 619 -15 774 150 b 415 744 774 581 619 744 b 57 365 210 744 57 581 z m 663 365 b 415 75 663 204 557 75 b 168 365 274 75 168 204 b 415 654 168 528 274 654 b 663 365 557 654 663 528 z "},"ó":{"ha":831,"x_min":0,"x_max":0,"o":"m 539 1028 l 338 799 l 433 799 l 701 1028 z m 57 365 b 415 -15 57 150 210 -15 b 774 365 619 -15 774 150 b 415 744 774 581 619 744 b 57 365 210 744 57 581 z m 663 365 b 415 75 663 204 557 75 b 168 365 274 75 168 204 b 415 654 168 528 274 654 b 663 365 557 654 663 528 z "},"ô":{"ha":831,"x_min":0,"x_max":0,"o":"m 418 967 l 574 799 l 681 799 l 492 1028 l 344 1028 l 156 799 l 263 799 z m 415 744 b 57 365 210 744 57 581 b 415 -15 57 150 210 -15 b 774 365 619 -15 774 150 b 415 744 774 581 619 744 z m 415 75 b 168 365 274 75 168 204 b 415 654 168 528 274 654 b 663 365 557 654 663 528 b 415 75 663 204 557 75 z "},"ö":{"ha":831,"x_min":0,"x_max":0,"o":"m 178 907 b 254 831 178 864 210 831 b 331 907 296 831 331 864 b 254 985 331 950 296 985 b 178 907 210 985 178 950 z m 504 907 b 579 831 504 864 536 831 b 657 907 622 831 657 864 b 579 985 657 950 622 985 b 504 907 536 985 504 950 z m 57 365 b 415 -15 57 150 210 -15 b 774 365 619 -15 774 150 b 415 744 774 581 619 744 b 57 365 210 744 57 581 z m 663 365 b 415 75 663 204 557 75 b 168 365 274 75 168 204 b 415 654 168 528 274 654 b 663 365 557 654 663 528 z "},"ò":{"ha":831,"x_min":0,"x_max":0,"o":"m 293 1028 l 131 1028 l 399 799 l 494 799 z m 57 365 b 415 -15 57 150 210 -15 b 774 365 619 -15 774 150 b 415 744 774 581 619 744 b 57 365 210 744 57 581 z m 663 365 b 415 75 663 204 557 75 b 168 365 274 75 168 204 b 415 654 168 528 274 654 b 663 365 557 654 663 528 z "},"ő":{"ha":831,"x_min":0,"x_max":0,"o":"m 415 1028 l 214 799 l 310 799 l 579 1028 z m 667 1028 l 465 799 l 561 799 l 829 1028 z m 57 365 b 415 -15 57 150 210 -15 b 774 365 619 -15 774 150 b 415 744 774 581 619 744 b 57 365 210 744 57 581 z m 663 365 b 415 75 663 204 557 75 b 168 365 274 75 168 204 b 415 654 168 528 274 654 b 663 365 557 654 663 528 z "},"ō":{"ha":831,"x_min":0,"x_max":0,"o":"m 125 878 l 125 799 l 708 799 l 708 878 z m 57 365 b 415 -15 57 150 210 -15 b 774 365 619 -15 774 150 b 415 744 774 581 619 744 b 57 365 210 744 57 581 z m 663 365 b 415 75 663 204 557 75 b 168 365 274 75 168 204 b 415 654 168 528 274 654 b 663 365 557 654 663 528 z "},"ø":{"ha":832,"x_min":0,"x_max":0,"o":"m 658 650 l 729 750 l 631 750 l 594 697 b 417 744 542 728 482 744 b 58 365 211 744 58 581 b 165 89 58 254 99 157 l 85 -26 l 183 -26 l 229 38 b 417 -15 282 4 346 -15 b 775 365 621 -15 775 150 b 658 650 775 481 731 581 z m 169 365 b 417 654 169 528 275 654 b 538 618 461 654 503 642 l 228 176 b 169 365 190 226 169 293 z m 417 75 b 285 118 367 75 322 90 l 599 564 b 664 365 639 513 664 443 b 417 75 664 204 557 75 z "},"õ":{"ha":831,"x_min":0,"x_max":0,"o":"m 299 915 b 539 818 375 915 454 818 b 696 978 604 818 696 861 l 632 978 b 550 900 628 940 603 900 b 311 997 485 900 406 997 b 150 838 233 997 150 946 l 215 838 b 299 915 221 878 253 915 z m 57 365 b 415 -15 57 150 210 -15 b 774 365 619 -15 774 150 b 415 744 774 581 619 744 b 57 365 210 744 57 581 z m 663 365 b 415 75 663 204 557 75 b 168 365 274 75 168 204 b 415 654 168 528 274 654 b 663 365 557 654 663 528 z "},"œ":{"ha":1406,"x_min":0,"x_max":0,"o":"m 1018 74 b 772 324 878 74 782 178 b 774 349 772 332 774 340 l 1354 349 b 1006 744 1351 576 1215 744 b 715 578 875 744 774 678 b 415 744 653 679 543 744 b 57 365 210 744 57 581 b 415 -15 57 150 210 -15 b 714 150 543 -15 651 50 b 1022 -15 775 49 883 -15 b 1332 181 1188 -15 1290 75 l 1236 222 b 1018 74 1203 118 1110 74 z m 1006 656 b 1236 432 1111 656 1218 583 l 775 432 b 1006 656 793 564 888 656 z m 415 75 b 168 365 274 75 168 204 b 415 654 168 528 274 654 b 661 397 547 654 649 544 b 660 361 660 386 660 374 b 661 329 660 350 660 340 b 415 75 646 186 546 75 z "},"p":{"ha":875,"x_min":0,"x_max":0,"o":"m 479 744 b 217 556 364 744 265 669 l 217 729 l 107 729 l 107 -243 l 218 -243 l 218 179 b 488 -15 257 64 365 -15 b 817 361 676 -15 817 144 b 479 744 817 582 675 744 z m 464 72 b 215 376 321 72 215 197 b 464 657 215 535 321 657 b 706 361 603 657 706 531 b 464 72 706 196 603 72 z "},"þ":{"ha":875,"x_min":0,"x_max":0,"o":"m 488 744 b 218 550 365 744 257 665 l 218 972 l 107 972 l 107 0 l 108 0 l 108 -243 l 219 -243 l 219 168 b 479 -15 268 57 367 -15 b 817 368 675 -15 817 147 b 488 744 817 585 676 744 z m 464 72 b 215 353 321 72 215 194 b 464 657 215 532 321 657 b 706 368 603 657 706 533 b 464 72 706 199 603 72 z "},"q":{"ha":875,"x_min":0,"x_max":0,"o":"m 658 729 l 658 556 b 396 744 610 669 511 744 b 58 361 200 744 58 582 b 388 -15 58 144 199 -15 b 657 179 510 -15 618 64 l 657 -243 l 768 -243 l 768 729 z m 411 72 b 169 361 272 72 169 196 b 411 657 169 531 272 657 b 660 376 554 657 660 535 b 411 72 660 197 554 72 z "},"r":{"ha":486,"x_min":0,"x_max":0,"o":"m 218 535 l 218 729 l 107 729 l 107 0 l 218 0 l 218 410 b 408 632 218 540 322 632 b 465 621 426 632 449 628 l 465 742 b 218 535 360 742 253 665 z "},"ŕ":{"ha":486,"x_min":0,"x_max":0,"o":"m 542 1028 l 379 1028 l 178 799 l 274 799 z m 218 535 l 218 729 l 107 729 l 107 0 l 218 0 l 218 410 b 408 632 218 540 322 632 b 465 621 426 632 449 628 l 465 742 b 218 535 360 742 253 665 z "},"ř":{"ha":486,"x_min":0,"x_max":0,"o":"m 181 799 l 328 799 l 517 1028 l 410 1028 l 254 860 l 100 1028 l -8 1028 z m 218 535 l 218 729 l 107 729 l 107 0 l 218 0 l 218 410 b 408 632 218 540 322 632 b 465 621 426 632 449 628 l 465 742 b 218 535 360 742 253 665 z "},"ŗ":{"ha":486,"x_min":0,"x_max":0,"o":"m 218 535 l 218 729 l 107 729 l 107 0 l 218 0 l 218 410 b 408 632 218 540 322 632 b 465 621 426 632 449 628 l 465 742 b 218 535 360 742 253 665 z m 108 -162 l 167 -162 b 121 -233 167 -203 156 -233 l 121 -264 b 215 -162 165 -264 215 -233 l 215 -56 l 108 -56 z "},"s":{"ha":733,"x_min":0,"x_max":0,"o":"m 47 269 b 381 -15 47 138 158 -15 b 682 214 564 -15 682 89 b 368 419 682 376 488 400 b 186 533 250 440 186 463 b 367 657 186 621 281 657 b 536 481 507 657 536 565 l 647 481 b 367 744 647 589 590 744 b 75 524 193 744 75 651 b 369 322 75 371 242 346 b 571 203 472 303 571 290 b 388 72 571 115 471 72 b 158 269 342 72 158 89 z "},"ś":{"ha":733,"x_min":0,"x_max":0,"o":"m 490 1028 l 289 799 l 385 799 l 654 1028 z m 47 269 b 381 -15 47 138 158 -15 b 682 214 564 -15 682 89 b 368 419 682 376 488 400 b 186 533 250 440 186 463 b 367 657 186 621 281 657 b 536 481 507 657 536 565 l 647 481 b 367 744 647 589 590 744 b 75 524 193 744 75 651 b 369 322 75 371 242 346 b 571 203 472 303 571 290 b 388 72 571 115 471 72 b 158 269 342 72 158 89 z "},"š":{"ha":733,"x_min":0,"x_max":0,"o":"m 303 799 l 449 799 l 638 1028 l 531 1028 l 375 860 l 221 1028 l 114 1028 z m 368 419 b 186 533 250 440 186 463 b 367 657 186 621 281 657 b 536 481 507 657 536 565 l 647 481 b 367 744 647 589 590 744 b 75 524 193 744 75 651 b 369 322 75 371 242 346 b 571 203 472 303 571 290 b 388 72 571 115 471 72 b 158 269 342 72 158 89 l 47 269 b 381 -15 47 138 158 -15 b 682 214 564 -15 682 89 b 368 419 682 376 488 400 z "},"ş":{"ha":733,"x_min":0,"x_max":0,"o":"m 682 214 b 368 419 682 376 488 400 b 186 533 250 440 186 463 b 367 657 186 621 281 657 b 536 481 507 657 536 565 l 647 481 b 367 744 647 589 590 744 b 75 524 193 744 75 651 b 369 322 75 371 242 346 b 571 203 472 303 571 290 b 388 72 571 115 471 72 b 158 269 342 72 158 89 l 47 269 b 331 -12 47 147 142 8 l 247 -144 l 318 -144 b 400 -111 338 -125 372 -111 b 453 -165 431 -111 453 -136 b 375 -228 453 -201 418 -228 b 292 -185 346 -228 310 -211 l 228 -224 b 374 -292 250 -258 308 -292 b 532 -160 463 -292 532 -235 b 426 -65 532 -106 485 -65 b 342 -96 399 -65 364 -78 l 394 -15 b 682 214 569 -10 682 92 z "},"ș":{"ha":733,"x_min":0,"x_max":0,"o":"m 368 419 b 186 533 250 440 186 463 b 367 657 186 621 281 657 b 536 481 507 657 536 565 l 647 481 b 367 744 647 589 590 744 b 75 524 193 744 75 651 b 369 322 75 371 242 346 b 571 203 472 303 571 290 b 388 72 571 115 471 72 b 158 269 342 72 158 89 l 47 269 b 381 -15 47 138 158 -15 b 682 214 564 -15 682 89 b 368 419 682 376 488 400 z m 318 -162 l 376 -162 b 331 -233 376 -203 365 -233 l 331 -264 b 425 -162 375 -264 425 -233 l 425 -56 l 318 -56 z "},"ß":{"ha":860,"x_min":0,"x_max":0,"o":"m 249 218 b 515 -14 261 74 376 -14 b 807 271 685 -14 807 108 b 504 549 807 453 642 536 b 708 739 590 561 708 599 b 422 988 708 881 588 988 b 107 640 246 988 107 863 l 107 0 l 218 0 l 218 640 b 425 893 218 808 311 893 b 603 732 524 893 603 829 b 367 581 603 614 486 586 l 367 493 b 696 268 547 493 696 426 b 514 79 696 161 615 79 b 349 240 422 79 353 149 z "},"t":{"ha":571,"x_min":0,"x_max":0,"o":"m 411 78 b 301 226 338 78 301 117 l 301 640 l 531 640 l 531 728 l 301 728 l 301 944 l 222 944 l 190 729 l 190 728 l 11 728 l 11 640 l 190 640 l 190 226 b 388 -15 190 94 239 -15 b 539 40 447 -15 504 3 l 539 142 b 411 78 513 104 468 78 z "},"ŧ":{"ha":593,"x_min":0,"x_max":0,"o":"m 546 404 l 546 490 l 301 490 l 301 640 l 531 640 l 531 728 l 301 728 l 301 944 l 222 944 l 190 729 l 190 728 l 11 728 l 11 640 l 190 640 l 190 490 l 28 490 l 28 404 l 190 404 l 190 226 b 388 -15 190 94 239 -15 b 539 40 447 -15 504 3 l 539 142 b 411 78 513 104 468 78 b 301 226 338 78 301 117 l 301 404 z "},"ť":{"ha":571,"x_min":0,"x_max":0,"o":"m 397 813 l 397 782 b 492 883 442 782 492 813 l 492 990 l 385 990 l 385 883 l 443 883 b 397 813 443 843 432 813 z m 411 78 b 301 226 338 78 301 117 l 301 640 l 531 640 l 531 728 l 301 728 l 301 944 l 222 944 l 190 729 l 190 728 l 11 728 l 11 640 l 190 640 l 190 226 b 388 -15 190 94 239 -15 b 539 40 447 -15 504 3 l 539 142 b 411 78 513 104 468 78 z "},"ţ":{"ha":571,"x_min":0,"x_max":0,"o":"m 411 78 b 301 226 338 78 301 117 l 301 640 l 531 640 l 531 728 l 301 728 l 301 944 l 222 944 l 190 729 l 190 728 l 11 728 l 11 640 l 190 640 l 190 226 b 332 -10 190 113 226 15 l 247 -144 l 318 -144 b 400 -111 338 -125 372 -111 b 453 -165 431 -111 453 -136 b 375 -228 453 -201 418 -228 b 292 -185 346 -228 310 -211 l 228 -224 b 374 -292 250 -258 308 -292 b 532 -160 463 -292 532 -235 b 426 -65 532 -106 485 -65 b 342 -96 399 -65 364 -78 l 394 -15 b 539 40 451 -14 506 4 l 539 142 b 411 78 513 104 468 78 z "},"ț":{"ha":571,"x_min":0,"x_max":0,"o":"m 411 78 b 301 226 338 78 301 117 l 301 640 l 531 640 l 531 728 l 301 728 l 301 944 l 222 944 l 190 729 l 190 728 l 11 728 l 11 640 l 190 640 l 190 226 b 388 -15 190 94 239 -15 b 539 40 447 -15 504 3 l 539 142 b 411 78 513 104 468 78 z m 318 -162 l 376 -162 b 331 -233 376 -203 365 -233 l 331 -264 b 425 -162 375 -264 425 -233 l 425 -56 l 318 -56 z "},"u":{"ha":836,"x_min":0,"x_max":0,"o":"m 618 729 l 618 389 b 386 82 618 260 535 82 b 210 357 249 82 210 167 l 210 729 l 99 729 l 99 325 b 349 -15 99 83 183 -15 b 618 222 494 -15 585 99 l 618 0 l 729 0 l 729 729 z "},"ú":{"ha":836,"x_min":0,"x_max":0,"o":"m 710 1028 l 547 1028 l 346 799 l 442 799 z m 618 729 l 618 389 b 386 82 618 260 535 82 b 210 357 249 82 210 167 l 210 729 l 99 729 l 99 325 b 349 -15 99 83 183 -15 b 618 222 494 -15 585 99 l 618 0 l 729 0 l 729 729 z "},"û":{"ha":836,"x_min":0,"x_max":0,"o":"m 422 967 l 578 799 l 685 799 l 496 1028 l 349 1028 l 160 799 l 268 799 z m 618 729 l 618 389 b 386 82 618 260 535 82 b 210 357 249 82 210 167 l 210 729 l 99 729 l 99 325 b 349 -15 99 83 183 -15 b 618 222 494 -15 585 99 l 618 0 l 729 0 l 729 729 z "},"ü":{"ha":836,"x_min":0,"x_max":0,"o":"m 256 831 b 332 907 297 831 332 864 b 256 985 332 950 297 985 b 179 907 211 985 179 950 b 256 831 179 864 211 831 z m 581 831 b 658 907 624 831 658 864 b 581 985 658 950 624 985 b 506 907 538 985 506 950 b 581 831 506 864 538 831 z m 618 729 l 618 389 b 386 82 618 260 535 82 b 210 357 249 82 210 167 l 210 729 l 99 729 l 99 325 b 349 -15 99 83 183 -15 b 618 222 494 -15 585 99 l 618 0 l 729 0 l 729 729 z "},"ù":{"ha":836,"x_min":0,"x_max":0,"o":"m 496 799 l 294 1028 l 132 1028 l 400 799 z m 618 729 l 618 389 b 386 82 618 260 535 82 b 210 357 249 82 210 167 l 210 729 l 99 729 l 99 325 b 349 -15 99 83 183 -15 b 618 222 494 -15 585 99 l 618 0 l 729 0 l 729 729 z "},"ű":{"ha":836,"x_min":0,"x_max":0,"o":"m 571 1028 l 408 1028 l 207 799 l 303 799 z m 554 799 l 822 1028 l 660 1028 l 458 799 z m 618 389 b 386 82 618 260 535 82 b 210 357 249 82 210 167 l 210 729 l 99 729 l 99 325 b 349 -15 99 83 183 -15 b 618 222 494 -15 585 99 l 618 0 l 729 0 l 729 729 l 618 729 z "},"ū":{"ha":836,"x_min":0,"x_max":0,"o":"m 710 878 l 126 878 l 126 799 l 710 799 z m 618 729 l 618 389 b 386 82 618 260 535 82 b 210 357 249 82 210 167 l 210 729 l 99 729 l 99 325 b 349 -15 99 83 183 -15 b 618 222 494 -15 585 99 l 618 0 l 729 0 l 729 729 z "},"ų":{"ha":835,"x_min":0,"x_max":0,"o":"m 713 -175 b 664 -117 681 -175 664 -146 b 717 0 664 -75 679 -43 l 729 0 l 729 729 l 618 729 l 618 389 b 386 82 618 260 535 82 b 210 357 249 82 210 167 l 210 729 l 99 729 l 99 325 b 349 -15 99 83 183 -15 b 618 222 494 -15 585 99 l 618 0 l 640 0 b 565 -133 603 -29 565 -90 b 685 -236 565 -192 610 -236 b 778 -204 721 -236 757 -225 l 778 -147 b 713 -175 763 -167 746 -175 z "},"ů":{"ha":836,"x_min":0,"x_max":0,"o":"m 418 794 b 590 967 513 794 590 872 b 418 1139 590 1061 513 1139 b 246 967 324 1139 246 1061 b 418 794 246 872 324 794 z m 418 1074 b 525 967 476 1074 525 1025 b 418 861 525 908 476 861 b 313 967 360 861 313 908 b 418 1074 313 1025 360 1074 z m 618 729 l 618 389 b 386 82 618 260 535 82 b 210 357 249 82 210 167 l 210 729 l 99 729 l 99 325 b 349 -15 99 83 183 -15 b 618 222 494 -15 585 99 l 618 0 l 729 0 l 729 729 z "},"v":{"ha":758,"x_min":0,"x_max":0,"o":"m 625 729 l 379 72 l 133 729 l 22 729 l 294 0 l 465 0 l 738 729 z "},"w":{"ha":1140,"x_min":0,"x_max":0,"o":"m 1004 729 l 807 81 l 644 729 l 499 729 l 331 82 l 139 729 l 25 729 l 249 0 l 408 0 l 571 606 l 728 0 l 890 0 l 1118 729 z "},"ẃ":{"ha":1140,"x_min":0,"x_max":0,"o":"m 858 1028 l 696 1028 l 494 799 l 590 799 z m 1004 729 l 807 81 l 644 729 l 499 729 l 331 82 l 139 729 l 25 729 l 249 0 l 408 0 l 571 606 l 728 0 l 890 0 l 1118 729 z "},"ŵ":{"ha":1140,"x_min":0,"x_max":0,"o":"m 578 967 l 732 799 l 840 799 l 651 1028 l 504 1028 l 315 799 l 422 799 z m 1004 729 l 807 81 l 644 729 l 499 729 l 331 82 l 139 729 l 25 729 l 249 0 l 408 0 l 571 606 l 728 0 l 890 0 l 1118 729 z "},"ẅ":{"ha":1140,"x_min":0,"x_max":0,"o":"m 410 831 b 486 907 451 831 486 864 b 410 985 486 950 451 985 b 333 907 365 985 333 950 b 410 831 333 864 365 831 z m 735 831 b 813 907 778 831 813 864 b 735 985 813 950 778 985 b 660 907 692 985 660 950 b 735 831 660 864 692 831 z m 1004 729 l 807 81 l 644 729 l 499 729 l 331 82 l 139 729 l 25 729 l 249 0 l 408 0 l 571 606 l 728 0 l 890 0 l 1118 729 z "},"ẁ":{"ha":1140,"x_min":0,"x_max":0,"o":"m 650 799 l 449 1028 l 286 1028 l 554 799 z m 1004 729 l 807 81 l 644 729 l 499 729 l 331 82 l 139 729 l 25 729 l 249 0 l 408 0 l 571 606 l 728 0 l 890 0 l 1118 729 z "},"x":{"ha":714,"x_min":0,"x_max":0,"o":"m 701 0 l 422 371 l 692 729 l 561 729 l 357 457 l 151 729 l 21 729 l 292 371 l 13 0 l 143 0 l 357 283 l 571 0 z "},"y":{"ha":713,"x_min":0,"x_max":0,"o":"m 418 1 l 692 729 l 581 729 l 360 149 l 133 729 l 18 729 l 306 4 l 304 0 b 176 -161 269 -76 246 -161 b 63 -119 129 -161 88 -139 l 63 -226 b 183 -264 86 -246 142 -264 b 415 -6 311 -264 350 -167 l 418 0 z "},"ý":{"ha":713,"x_min":0,"x_max":0,"o":"m 642 1028 l 479 1028 l 278 799 l 374 799 z m 418 1 l 692 729 l 581 729 l 360 149 l 133 729 l 18 729 l 306 4 l 304 0 b 176 -161 269 -76 246 -161 b 63 -119 129 -161 88 -139 l 63 -226 b 183 -264 86 -246 142 -264 b 415 -6 311 -264 350 -167 l 418 0 z "},"ŷ":{"ha":713,"x_min":0,"x_max":0,"o":"m 349 967 l 504 799 l 611 799 l 422 1028 l 275 1028 l 86 799 l 194 799 z m 418 1 l 692 729 l 581 729 l 360 149 l 133 729 l 18 729 l 306 4 l 304 0 b 176 -161 269 -76 246 -161 b 63 -119 129 -161 88 -139 l 63 -226 b 183 -264 86 -246 142 -264 b 415 -6 311 -264 350 -167 l 418 0 z "},"ÿ":{"ha":713,"x_min":0,"x_max":0,"o":"m 193 831 b 269 907 235 831 269 864 b 193 985 269 950 235 985 b 117 907 149 985 117 950 b 193 831 117 864 149 831 z m 518 831 b 596 907 561 831 596 864 b 518 985 596 950 561 985 b 443 907 475 985 443 950 b 518 831 443 864 475 831 z m 418 1 l 692 729 l 581 729 l 360 149 l 133 729 l 18 729 l 306 4 l 304 0 b 176 -161 269 -76 246 -161 b 63 -119 129 -161 88 -139 l 63 -226 b 183 -264 86 -246 142 -264 b 415 -6 311 -264 350 -167 l 418 0 z "},"ỳ":{"ha":713,"x_min":0,"x_max":0,"o":"m 433 799 l 232 1028 l 69 1028 l 338 799 z m 418 1 l 692 729 l 581 729 l 360 149 l 133 729 l 18 729 l 306 4 l 304 0 b 176 -161 269 -76 246 -161 b 63 -119 129 -161 88 -139 l 63 -226 b 183 -264 86 -246 142 -264 b 415 -6 311 -264 350 -167 l 418 0 z "},"z":{"ha":729,"x_min":0,"x_max":0,"o":"m 54 729 l 54 635 l 575 635 l 54 124 l 54 -1 l 675 -1 l 675 93 l 154 93 l 675 604 l 675 729 z "},"ź":{"ha":729,"x_min":0,"x_max":0,"o":"m 646 1028 l 483 1028 l 282 799 l 378 799 z m 54 729 l 54 635 l 575 635 l 54 124 l 54 -1 l 675 -1 l 675 93 l 154 93 l 675 604 l 675 729 z "},"ž":{"ha":729,"x_min":0,"x_max":0,"o":"m 286 799 l 433 799 l 622 1028 l 515 1028 l 360 860 l 206 1028 l 97 1028 z m 54 729 l 54 635 l 575 635 l 54 124 l 54 -1 l 675 -1 l 675 93 l 154 93 l 675 604 l 675 729 z "},"ż":{"ha":729,"x_min":0,"x_max":0,"o":"m 365 829 b 444 908 408 829 444 864 b 365 986 444 951 408 986 b 286 908 321 986 286 951 b 365 829 286 864 321 829 z m 54 729 l 54 635 l 575 635 l 54 124 l 54 -1 l 675 -1 l 675 93 l 154 93 l 675 604 l 675 729 z "},"ﬁ":{"ha":876,"x_min":0,"x_max":0,"o":"m 386 988 b 193 744 242 988 193 883 l 193 729 l 13 729 l 13 642 l 193 642 l 193 0 l 304 0 l 304 642 l 542 642 l 542 729 l 304 729 l 304 744 b 414 897 304 861 342 897 b 542 843 468 897 511 876 l 542 926 b 386 988 511 964 450 988 z m 714 988 b 632 907 667 988 632 953 b 714 825 632 860 667 825 b 794 907 760 825 794 860 b 714 988 794 953 760 988 z m 658 0 l 769 0 l 769 729 l 658 729 z "},"ﬂ":{"ha":876,"x_min":0,"x_max":0,"o":"m 386 988 b 193 744 242 988 193 883 l 193 729 l 13 729 l 13 642 l 193 642 l 193 0 l 304 0 l 304 642 l 542 642 l 542 729 l 304 729 l 304 744 b 414 897 304 861 342 897 b 542 843 468 897 511 876 l 542 926 b 386 988 511 964 450 988 z m 658 972 l 658 0 l 769 0 l 769 972 z "},"ª":{"ha":575,"x_min":0,"x_max":0,"o":"m 239 796 b 76 657 157 775 76 735 b 208 546 76 599 126 546 b 368 681 294 546 344 604 l 368 556 l 463 556 l 463 819 b 276 983 463 924 385 983 b 83 804 167 983 86 917 l 179 804 b 278 913 179 871 214 913 b 368 842 346 913 368 864 l 368 831 z m 242 617 b 178 667 200 617 178 643 b 257 738 178 696 206 719 l 368 776 b 242 617 368 719 326 617 z m 46 483 l 46 411 l 513 411 l 513 483 z "},"º":{"ha":518,"x_min":0,"x_max":0,"o":"m 46 765 b 260 546 46 640 135 546 b 474 765 383 546 474 640 b 260 983 474 890 383 983 b 46 765 136 983 46 890 z m 378 765 b 260 618 378 685 328 618 b 140 765 190 618 140 685 b 260 908 140 844 190 908 b 378 765 328 908 378 844 z m 28 483 l 28 411 l 494 411 l 494 483 z "},"Δ":{"ha":861,"x_min":0,"x_max":0,"o":"m 479 972 l 382 972 l 29 67 l 29 0 l 832 0 l 832 65 z m 153 97 l 431 842 l 710 97 z "},"Ω":{"ha":1092,"x_min":0,"x_max":0,"o":"m 800 94 b 1007 501 929 181 1007 325 b 544 986 1007 778 818 986 b 82 501 271 986 82 778 b 289 94 82 325 160 181 l 71 94 l 71 0 l 463 0 l 463 94 l 461 94 b 194 486 304 131 194 290 b 544 886 194 719 339 886 b 894 489 754 886 894 715 b 629 94 894 290 785 131 l 629 0 l 1021 0 l 1021 94 z "},"μ":{"ha":876,"x_min":0,"x_max":0,"o":"m 754 146 l 754 729 l 643 729 l 643 389 b 401 82 643 226 560 82 b 219 389 219 82 219 306 l 219 729 l 107 729 l 107 -251 l 218 -251 l 218 56 b 382 -15 256 11 308 -15 b 643 188 529 -15 611 76 l 643 128 b 815 0 643 32 707 0 l 815 88 b 754 146 778 88 754 104 z "},"π":{"ha":896,"x_min":0,"x_max":0,"o":"m 867 632 l 867 729 l 17 729 l 17 632 l 222 632 b 172 564 186 632 172 597 l 172 0 l 283 0 l 283 632 l 592 632 l 592 154 b 804 8 592 24 703 -24 l 804 100 b 703 167 754 81 703 104 l 703 632 z "},"⁄":{"ha":172,"x_min":0,"x_max":0,"o":"m 378 972 l -264 0 l -208 0 l 433 972 z "},"½":{"ha":1179,"x_min":0,"x_max":0,"o":"m 190 417 l 269 417 l 269 972 l 163 972 b 42 821 161 890 121 826 l 42 743 b 190 892 136 747 176 811 z m 810 972 l 168 0 l 224 0 l 865 972 z m 783 74 b 932 221 797 181 853 192 b 1119 397 1049 263 1119 297 b 918 563 1119 493 1039 563 b 697 340 782 563 697 472 l 779 340 b 922 494 779 453 847 494 b 1039 403 976 494 1039 461 b 931 290 1039 329 976 308 b 699 11 801 243 699 210 l 699 0 l 1128 0 l 1128 74 z "},"¼":{"ha":1088,"x_min":0,"x_max":0,"o":"m 189 417 l 268 417 l 268 972 l 163 972 b 42 821 160 890 121 826 l 42 743 b 189 892 135 747 175 811 z m 807 972 l 165 0 l 221 0 l 863 972 z m 1040 232 l 978 232 l 978 556 l 846 556 b 568 232 754 396 611 265 l 568 160 l 896 160 l 896 0 l 978 0 l 978 160 l 1040 160 z m 671 232 b 896 506 718 275 824 382 l 896 232 z "},"¾":{"ha":1251,"x_min":0,"x_max":0,"o":"m 483 574 b 353 708 483 643 432 689 b 458 821 419 726 458 764 b 263 979 458 913 376 979 b 56 789 135 979 56 894 l 138 789 b 260 911 138 863 186 911 b 378 818 325 911 378 874 b 233 738 378 771 325 738 l 233 679 b 401 576 336 679 401 640 b 268 479 401 518 347 479 b 131 607 185 479 131 532 l 47 607 b 271 410 47 488 138 410 b 483 574 394 410 483 474 z m 935 972 l 293 0 l 347 0 l 989 972 z m 1208 232 l 1144 232 l 1144 556 l 1014 556 b 735 232 921 396 779 265 l 735 160 l 1063 160 l 1063 0 l 1144 0 l 1144 160 l 1208 160 z m 838 232 b 1063 504 886 275 990 381 l 1063 232 z "},"⅛":{"ha":1153,"x_min":0,"x_max":0,"o":"m 190 417 l 269 417 l 269 972 l 163 972 b 42 821 161 890 121 826 l 42 743 b 190 892 136 747 176 811 z m 804 972 l 163 0 l 218 0 l 860 972 z m 1004 294 b 1079 413 1051 319 1079 363 b 900 563 1079 500 1006 563 b 714 413 790 563 714 500 b 793 294 714 363 743 319 b 692 160 731 268 692 218 b 900 -7 692 63 778 -7 b 1103 160 1019 -7 1103 63 b 1004 294 1103 218 1065 268 z m 793 411 b 900 492 793 460 838 492 b 1000 411 960 492 1000 460 b 900 315 1000 354 960 315 b 793 411 838 315 793 354 z m 900 65 b 771 161 825 65 771 103 b 900 268 771 225 825 268 b 1024 161 972 268 1024 225 b 900 65 1024 103 972 65 z "},"⅜":{"ha":1275,"x_min":0,"x_max":0,"o":"m 481 574 b 350 708 481 642 431 688 b 457 821 418 726 457 764 b 260 979 457 913 375 979 b 54 789 133 979 54 894 l 136 789 b 257 911 136 863 183 911 b 375 818 324 911 375 874 b 231 738 375 771 324 738 l 231 679 b 399 576 333 679 399 640 b 267 479 399 518 344 479 b 129 607 183 479 129 532 l 46 607 b 269 410 46 488 136 410 b 481 574 393 410 481 474 z m 932 972 l 290 0 l 346 0 l 988 972 z m 1132 294 b 1207 413 1179 319 1207 363 b 1028 563 1207 500 1133 563 b 842 413 918 563 842 500 b 921 294 842 363 871 319 b 819 160 858 268 819 218 b 1028 -7 819 63 906 -7 b 1231 160 1147 -7 1231 63 b 1132 294 1231 218 1193 268 z m 921 411 b 1028 492 921 460 965 492 b 1128 411 1088 492 1128 460 b 1028 315 1128 354 1088 315 b 921 411 965 315 921 354 z m 1028 65 b 899 161 953 65 899 103 b 1028 268 899 225 953 268 b 1151 161 1100 268 1151 225 b 1028 65 1151 103 1100 65 z "},"⅝":{"ha":1271,"x_min":0,"x_max":0,"o":"m 481 626 b 294 815 481 742 403 815 b 144 733 224 815 168 776 l 183 900 l 458 900 l 458 972 l 115 972 l 50 689 l 135 689 b 283 767 167 739 225 767 b 397 628 356 767 397 718 b 268 481 397 531 346 481 b 126 613 181 481 126 531 l 44 613 b 268 410 44 497 140 410 b 481 626 397 410 481 500 z m 931 972 l 289 0 l 344 0 l 986 972 z m 1126 294 b 1201 413 1174 319 1201 363 b 1022 563 1201 500 1128 563 b 836 413 914 563 836 500 b 915 294 836 363 867 319 b 814 160 853 268 814 218 b 1022 -7 814 63 900 -7 b 1225 160 1142 -7 1225 63 b 1126 294 1225 218 1188 268 z m 915 411 b 1022 492 915 460 960 492 b 1122 411 1082 492 1122 460 b 1022 315 1122 354 1082 315 b 915 411 960 315 915 354 z m 1022 65 b 893 161 947 65 893 103 b 1022 268 893 225 947 268 b 1146 161 1094 268 1146 225 b 1022 65 1146 103 1094 65 z "},"⅞":{"ha":1076,"x_min":0,"x_max":0,"o":"m 176 417 b 463 899 243 576 325 738 l 463 972 l 49 972 l 49 899 l 371 899 b 83 417 235 738 153 576 z m 735 972 l 93 0 l 149 0 l 790 972 z m 932 296 b 1007 413 979 321 1007 363 b 828 563 1007 500 933 563 b 643 413 719 563 643 500 b 721 294 643 363 672 319 b 619 160 658 268 619 218 b 828 -7 619 63 706 -7 b 1032 160 949 -7 1032 63 b 932 296 1032 218 994 269 z m 721 411 b 828 492 721 460 767 492 b 929 411 888 492 929 460 b 828 315 929 354 888 315 b 721 411 767 315 721 354 z m 828 65 b 700 161 753 65 700 103 b 828 268 700 225 753 268 b 951 161 900 268 951 225 b 828 65 951 103 900 65 z "},".":{"ha":315,"x_min":0,"x_max":0,"o":"m 71 74 b 157 -15 71 25 110 -15 b 244 74 206 -15 244 25 b 157 158 244 121 206 158 b 71 74 110 158 71 121 z "},",":{"ha":318,"x_min":0,"x_max":0,"o":"m 172 -17 l 3 -196 l 118 -196 l 218 -17 b 246 67 231 4 246 32 b 158 156 246 118 207 156 b 72 69 108 156 72 118 b 172 -17 72 26 108 -17 z "},":":{"ha":353,"x_min":0,"x_max":0,"o":"m 90 643 b 176 556 90 596 129 556 b 264 643 224 556 264 596 b 176 729 264 690 224 729 b 90 643 129 729 90 690 z m 90 72 b 176 -15 90 25 129 -15 b 264 72 224 -15 264 25 b 176 158 264 119 224 158 b 90 72 129 158 90 119 z "},";":{"ha":381,"x_min":0,"x_max":0,"o":"m 103 643 b 189 556 103 596 142 556 b 276 643 236 556 276 596 b 189 729 276 690 236 729 b 103 643 142 729 103 690 z m 213 -17 l 42 -196 l 157 -196 l 258 -17 b 286 67 269 4 286 32 b 197 156 286 118 246 156 b 111 69 147 156 111 118 b 213 -17 111 26 149 -17 z "},"…":{"ha":810,"x_min":0,"x_max":0,"o":"m 71 74 b 157 -15 71 25 110 -15 b 244 74 206 -15 244 25 b 157 158 244 121 206 158 b 71 74 110 158 71 121 z m 317 74 b 404 -15 317 25 356 -15 b 490 74 451 -15 490 25 b 404 158 490 121 451 158 b 317 74 356 158 317 121 z m 565 74 b 653 -15 565 25 604 -15 b 739 74 700 -15 739 25 b 653 158 739 121 700 158 b 565 74 604 158 565 121 z "},"!":{"ha":336,"x_min":0,"x_max":0,"o":"m 110 972 l 128 210 l 208 210 l 228 972 z m 88 58 b 168 -22 88 14 124 -22 b 249 58 213 -22 249 13 b 168 138 249 103 213 138 b 88 58 124 138 88 103 z "},"¡":{"ha":322,"x_min":0,"x_max":0,"o":"m 161 717 b 81 636 115 717 81 681 b 161 557 81 592 115 557 b 240 636 206 557 240 592 b 161 717 240 682 206 717 z m 103 -278 l 219 -278 l 200 485 l 121 485 z "},"?":{"ha":749,"x_min":0,"x_max":0,"o":"m 592 703 b 264 240 592 504 265 556 l 375 240 b 704 703 375 493 704 435 b 382 988 704 876 563 988 b 42 639 169 988 42 850 l 156 639 b 382 890 156 799 238 890 b 592 703 494 890 592 826 z m 239 67 b 321 -17 239 21 275 -17 b 401 67 364 -17 401 21 b 321 147 401 111 364 147 b 239 67 275 147 239 111 z "},"¿":{"ha":740,"x_min":0,"x_max":0,"o":"m 506 642 b 424 725 506 688 469 725 b 343 642 381 725 343 688 b 424 561 343 597 381 561 b 506 642 469 561 506 597 z m 153 6 b 481 468 153 204 479 153 l 369 468 b 40 6 369 215 40 274 b 363 -279 40 -168 182 -279 b 703 69 575 -279 703 -142 l 589 69 b 363 -182 589 -90 507 -182 b 153 6 250 -182 153 -118 z "},"·":{"ha":344,"x_min":0,"x_max":0,"o":"m 85 368 b 172 281 85 321 125 281 b 260 368 219 281 260 321 b 172 454 260 417 219 454 b 85 368 125 454 85 417 z "},"•":{"ha":522,"x_min":0,"x_max":0,"o":"m 107 347 b 261 193 107 261 176 193 b 415 347 346 193 415 261 b 261 501 415 432 346 501 b 107 347 176 501 107 432 z "},"*":{"ha":599,"x_min":0,"x_max":0,"o":"m 549 771 l 518 863 l 322 774 l 347 988 l 251 988 l 276 774 l 81 863 l 51 771 l 264 729 l 117 571 l 194 515 l 300 700 l 407 517 l 485 572 l 338 731 z "},"#":{"ha":1554,"x_min":0,"x_max":0,"o":"m 1471 650 l 1519 747 l 1253 747 l 1361 972 l 1247 972 l 1139 747 l 694 747 l 803 972 l 689 972 l 581 747 l 251 747 l 203 650 l 535 650 l 379 328 l 86 328 l 38 231 l 333 231 l 222 0 l 338 0 l 447 231 l 892 231 l 781 0 l 896 0 l 1006 231 l 1307 231 l 1354 328 l 1053 328 l 1207 650 z m 938 328 l 494 328 l 649 650 l 1093 650 z "},"/":{"ha":650,"x_min":0,"x_max":0,"o":"m 499 972 l 32 0 l 150 0 l 615 972 z "},"\\":{"ha":649,"x_min":0,"x_max":0,"o":"m 33 972 l 499 0 l 617 0 l 151 972 z "},"(":{"ha":504,"x_min":0,"x_max":0,"o":"m 57 424 b 492 -275 57 93 244 -217 l 492 -207 b 151 424 304 -149 151 163 b 492 1039 151 681 304 981 l 492 1107 b 57 424 244 1049 57 754 z "},")":{"ha":504,"x_min":0,"x_max":0,"o":"m 13 -281 b 447 418 260 -222 447 88 b 13 1101 447 749 260 1043 l 13 1033 b 354 418 200 975 354 675 b 13 -212 354 157 200 -154 z "},"{":{"ha":483,"x_min":0,"x_max":0,"o":"m 260 625 b 453 894 260 799 318 894 l 453 993 b 169 647 249 993 169 892 b 15 418 169 504 107 418 l 15 299 b 169 68 107 299 169 211 b 453 -278 169 -176 249 -278 l 453 -179 b 260 90 318 -179 260 -83 b 158 358 260 250 208 325 b 260 625 208 392 260 465 z "},"}":{"ha":483,"x_min":0,"x_max":0,"o":"m 314 647 b 31 993 314 892 233 993 l 31 894 b 224 625 165 894 224 799 b 325 358 224 465 275 392 b 224 90 275 325 224 250 b 31 -179 224 -83 165 -179 l 31 -278 b 314 68 233 -278 314 -176 b 468 299 314 211 376 299 l 468 418 b 314 647 376 418 314 504 z "},"[":{"ha":525,"x_min":0,"x_max":0,"o":"m 497 956 l 497 1046 l 117 1046 l 117 -204 l 497 -204 l 497 -114 l 222 -114 l 222 956 z "},"]":{"ha":525,"x_min":0,"x_max":0,"o":"m 408 1047 l 28 1047 l 28 957 l 303 957 l 303 -112 l 28 -112 l 28 -203 l 408 -203 z "},"-":{"ha":596,"x_min":0,"x_max":0,"o":"m 90 408 l 90 321 l 507 321 l 507 408 z "},"­":{"ha":596,"x_min":0,"x_max":0,"o":"m 90 408 l 90 321 l 507 321 l 507 408 z "},"–":{"ha":735,"x_min":0,"x_max":0,"o":"m 90 413 l 90 317 l 646 317 l 646 413 z "},"—":{"ha":1151,"x_min":0,"x_max":0,"o":"m 90 413 l 90 317 l 1063 317 l 1063 413 z "},"_":{"ha":960,"x_min":0,"x_max":0,"o":"m 64 0 l 64 -47 l 897 -47 l 897 0 z "},"‚":{"ha":318,"x_min":0,"x_max":0,"o":"m 172 -17 l 3 -196 l 118 -196 l 218 -17 b 246 67 231 4 246 32 b 158 156 246 118 207 156 b 72 69 108 156 72 118 b 172 -17 72 26 108 -17 z "},"„":{"ha":519,"x_min":0,"x_max":0,"o":"m 172 -15 l 3 -194 l 118 -194 l 218 -15 b 246 68 231 6 246 35 b 158 157 246 119 206 157 b 72 71 107 157 72 119 b 172 -15 72 28 108 -15 z m 374 -15 l 204 -194 l 319 -194 l 419 -15 b 447 68 432 6 447 35 b 360 157 447 119 408 157 b 274 71 310 157 274 119 b 374 -15 274 28 310 -15 z "},"“":{"ha":524,"x_min":0,"x_max":0,"o":"m 128 910 l 297 1088 l 182 1088 l 82 910 b 54 826 69 889 54 860 b 142 738 54 775 94 738 b 228 824 193 738 228 775 b 128 910 228 867 192 910 z m 329 910 l 500 1088 l 385 1088 l 283 910 b 256 826 271 889 256 860 b 343 738 256 775 296 738 b 431 824 394 738 431 775 b 329 910 431 867 393 910 z "},"”":{"ha":536,"x_min":0,"x_max":0,"o":"m 218 917 l 49 739 l 164 739 l 264 917 b 292 1000 276 939 292 967 b 204 1090 292 1051 251 1090 b 118 1003 153 1090 118 1051 b 218 917 118 960 154 917 z m 419 917 l 250 739 l 365 739 l 465 917 b 493 1000 478 939 493 967 b 406 1090 493 1051 453 1090 b 319 1003 354 1090 319 1051 b 419 917 319 960 356 917 z "},"‘":{"ha":319,"x_min":0,"x_max":0,"o":"m 128 911 l 297 1090 l 182 1090 l 82 911 b 54 828 69 890 54 863 b 142 739 54 776 94 739 b 228 826 193 739 228 778 b 128 911 228 869 192 911 z "},"’":{"ha":333,"x_min":0,"x_max":0,"o":"m 215 919 l 46 740 l 161 740 l 261 919 b 289 1003 274 940 289 968 b 201 1092 289 1054 250 1092 b 115 1006 151 1092 115 1054 b 215 919 115 963 153 919 z "},"«":{"ha":747,"x_min":0,"x_max":0,"o":"m 411 688 l 411 817 l 46 458 l 46 328 l 411 -40 l 411 85 l 107 390 z m 681 817 l 315 458 l 315 328 l 681 -40 l 681 85 l 376 390 l 681 688 z "},"»":{"ha":747,"x_min":0,"x_max":0,"o":"m 432 326 l 432 457 l 67 825 l 67 700 l 371 394 l 67 97 l 67 -31 z m 335 825 l 335 700 l 639 394 l 335 97 l 335 -31 l 700 326 l 700 457 z "},"‹":{"ha":478,"x_min":0,"x_max":0,"o":"m 411 817 l 46 460 l 46 329 l 411 -39 l 411 86 l 107 392 l 411 689 z "},"›":{"ha":478,"x_min":0,"x_max":0,"o":"m 67 824 l 67 699 l 371 393 l 67 96 l 67 -33 l 432 325 l 432 456 z "},"\"":{"ha":500,"x_min":0,"x_max":0,"o":"m 78 1042 l 93 694 l 169 694 l 185 1042 z m 315 1042 l 331 694 l 407 694 l 422 1042 z "},"'":{"ha":263,"x_min":0,"x_max":0,"o":"m 78 1042 l 93 694 l 169 694 l 185 1042 z "}," ":{"ha":340,"x_min":0,"x_max":0,"o":""},"¢":{"ha":811,"x_min":0,"x_max":0,"o":"m 454 194 l 454 771 b 646 567 561 757 642 675 l 757 567 b 454 861 751 729 625 846 l 454 972 l 393 972 l 393 861 b 61 483 203 850 61 692 b 393 106 61 281 203 118 l 393 0 l 454 0 l 454 106 b 757 383 629 119 754 232 l 646 383 b 454 194 643 282 564 208 z m 172 483 b 393 772 172 639 268 758 l 393 194 b 172 483 267 210 172 333 z "},"¤":{"ha":799,"x_min":0,"x_max":0,"o":"m 676 422 b 624 586 676 483 657 539 l 731 693 l 669 753 l 563 646 b 399 700 517 681 460 700 b 235 647 338 700 281 681 l 129 753 l 68 693 l 175 586 b 121 422 140 540 121 483 b 175 258 121 361 140 304 l 68 151 l 129 92 l 235 197 b 399 144 281 164 338 144 b 563 199 460 144 517 164 l 669 92 l 731 151 l 624 258 b 676 422 657 306 676 361 z m 206 422 b 399 615 206 529 292 615 b 592 422 506 615 592 529 b 399 229 592 317 506 229 b 206 422 292 229 206 317 z "},"$":{"ha":883,"x_min":0,"x_max":0,"o":"m 829 263 b 464 549 829 456 622 511 b 460 550 463 549 461 549 l 460 889 b 675 631 610 881 675 789 l 793 631 b 460 986 793 826 682 974 l 460 1079 l 394 1079 l 394 986 b 78 708 183 974 78 843 b 394 450 78 540 243 488 l 394 88 b 168 383 274 108 168 193 l 50 383 b 394 -12 50 143 194 10 l 394 -115 l 460 -115 l 460 -15 b 829 263 671 -14 829 97 z m 196 715 b 394 889 196 796 261 875 l 394 565 b 196 715 274 596 196 628 z m 460 82 l 460 435 b 711 261 621 394 711 364 b 460 82 711 143 589 82 z "},"ƒ":{"ha":869,"x_min":0,"x_max":0,"o":"m 704 894 b 831 843 760 894 800 874 l 831 935 b 682 988 796 969 742 988 b 447 744 531 988 483 871 l 401 571 l 153 571 l 153 483 l 379 483 l 335 317 l 314 238 b 168 88 275 126 242 88 b 42 139 113 88 72 108 l 42 47 b 190 -6 76 13 131 -6 b 426 238 342 -6 386 111 l 446 317 l 490 483 l 724 483 l 724 571 l 513 571 l 558 744 b 704 894 590 857 631 894 z "},"£":{"ha":842,"x_min":0,"x_max":0,"o":"m 719 192 b 560 79 675 119 625 79 b 313 160 469 79 417 160 b 289 158 304 160 297 160 b 335 325 319 210 335 268 b 318 432 335 367 328 401 l 675 432 l 703 503 l 290 503 b 239 672 265 557 239 604 b 475 894 239 807 342 894 b 669 761 604 894 654 811 l 763 818 b 474 986 743 882 649 986 b 132 681 276 986 132 858 b 188 503 132 600 161 551 l 69 503 l 42 432 l 221 432 b 233 347 228 408 233 381 b 82 29 233 257 190 132 l 142 -14 b 304 79 189 43 228 79 b 592 -15 428 79 461 -15 b 808 128 672 -15 738 19 z "},"¥":{"ha":1015,"x_min":0,"x_max":0,"o":"m 968 972 l 825 972 l 507 533 l 186 972 l 43 972 l 389 511 l 89 511 l 89 435 l 446 435 l 446 379 l 89 379 l 89 303 l 446 303 l 446 0 l 567 0 l 567 303 l 929 303 l 929 379 l 567 379 l 567 435 l 929 435 l 929 511 l 624 511 z "},"≡":{"ha":988,"x_min":0,"x_max":0,"o":"m 90 729 l 90 640 l 897 640 l 897 729 z m 90 535 l 90 446 l 897 446 l 897 535 z m 90 339 l 90 250 l 897 250 l 897 339 z "},"+":{"ha":789,"x_min":0,"x_max":0,"o":"m 746 531 l 443 531 l 443 838 l 347 838 l 347 531 l 43 531 l 43 443 l 347 443 l 347 135 l 443 135 l 443 443 l 746 443 z "},"−":{"ha":996,"x_min":0,"x_max":0,"o":"m 94 531 l 94 442 l 901 442 l 901 531 z "},"×":{"ha":828,"x_min":0,"x_max":0,"o":"m 763 767 l 697 833 l 417 553 l 135 835 l 67 768 l 349 486 l 67 204 l 135 138 l 417 419 l 697 139 l 763 207 l 483 486 z "},"÷":{"ha":957,"x_min":0,"x_max":0,"o":"m 393 769 b 481 682 393 722 432 682 b 567 769 528 682 567 722 b 481 856 567 817 528 856 b 393 769 432 856 393 817 z m 75 533 l 75 446 l 882 446 l 882 533 z m 393 199 b 481 111 393 151 432 111 b 567 199 528 111 567 151 b 481 285 567 246 528 285 b 393 199 432 285 393 246 z "},"=":{"ha":996,"x_min":0,"x_max":0,"o":"m 94 729 l 94 642 l 901 642 l 901 729 z m 94 286 l 94 199 l 901 199 l 901 286 z "},"≠":{"ha":1019,"x_min":0,"x_max":0,"o":"m 901 642 l 901 729 l 757 729 l 868 872 l 754 872 l 643 729 l 94 729 l 94 642 l 575 642 l 299 286 l 94 286 l 94 199 l 231 199 l 150 94 l 264 94 l 344 199 l 901 199 l 901 286 l 413 286 l 689 642 z "},">":{"ha":729,"x_min":0,"x_max":0,"o":"m 61 833 l 61 729 l 597 488 l 61 246 l 61 143 l 671 418 l 671 557 z "},"<":{"ha":729,"x_min":0,"x_max":0,"o":"m 668 833 l 58 557 l 58 418 l 668 143 l 668 246 l 132 488 l 668 729 z "},"≥":{"ha":772,"x_min":0,"x_max":0,"o":"m 693 525 l 693 664 l 85 940 l 85 836 l 618 594 l 85 351 l 85 250 z m 88 143 l 88 54 l 696 54 l 696 143 z "},"≤":{"ha":772,"x_min":0,"x_max":0,"o":"m 688 940 l 78 664 l 78 525 l 688 250 l 688 351 l 153 594 l 688 836 z m 75 54 l 685 54 l 685 143 l 75 143 z "},"±":{"ha":858,"x_min":0,"x_max":0,"o":"m 479 617 l 479 843 l 379 843 l 379 617 l 82 617 l 82 528 l 379 528 l 379 300 l 479 300 l 479 528 l 776 528 l 776 617 z m 82 125 l 776 125 l 776 213 l 82 213 z "},"≈":{"ha":735,"x_min":0,"x_max":0,"o":"m 244 593 b 485 497 319 593 399 497 b 642 657 550 497 642 539 l 576 657 b 496 579 572 619 549 579 b 256 676 429 579 350 676 b 94 517 179 676 94 625 l 160 517 b 244 593 165 557 197 593 z m 244 365 b 485 269 319 365 399 269 b 642 429 550 269 642 311 l 576 429 b 496 351 572 392 549 351 b 256 449 429 351 350 449 b 94 289 179 449 94 397 l 160 289 b 244 365 165 329 197 365 z "},"~":{"ha":731,"x_min":0,"x_max":0,"o":"m 243 429 b 483 332 318 429 397 332 b 640 492 549 332 640 375 l 575 492 b 494 414 571 454 547 414 b 254 511 428 414 349 511 b 94 351 178 511 94 460 l 158 351 b 243 429 164 392 196 429 z "},"¬":{"ha":782,"x_min":0,"x_max":0,"o":"m 85 465 l 85 368 l 571 368 l 571 106 l 682 106 l 682 465 z "},"^":{"ha":758,"x_min":0,"x_max":0,"o":"m 738 243 l 465 972 l 294 972 l 22 243 l 133 243 l 379 900 l 625 243 z "},"∞":{"ha":1199,"x_min":0,"x_max":0,"o":"m 869 744 b 600 572 742 744 661 657 b 329 744 538 657 457 744 b 67 486 183 744 67 639 b 329 228 67 333 183 228 b 600 399 457 228 538 314 b 869 228 661 314 742 228 b 1133 486 1015 228 1133 333 b 869 744 1133 639 1015 744 z m 340 322 b 174 486 243 322 174 399 b 340 650 174 572 243 650 b 539 488 433 650 504 543 l 538 486 b 539 485 538 486 538 485 b 340 322 504 426 433 322 z m 858 322 b 660 485 767 322 696 426 b 661 486 661 486 661 486 l 660 488 b 858 650 696 543 767 650 b 1025 486 956 650 1025 572 b 858 322 1025 399 956 322 z "},"∫":{"ha":756,"x_min":0,"x_max":0,"o":"m 613 988 b 378 744 457 988 399 871 l 288 146 l 272 67 b 119 -83 242 -46 194 -83 b -7 -32 65 -83 25 -62 l -7 -125 b 142 -176 28 -158 83 -176 b 385 67 294 -176 361 -61 l 399 146 l 489 744 b 635 894 508 857 561 894 b 761 843 690 894 731 874 l 761 935 b 613 988 726 969 672 988 z "},"∏":{"ha":938,"x_min":0,"x_max":0,"o":"m 890 875 l 890 972 l 39 972 l 39 875 l 246 875 b 194 807 208 875 194 840 l 194 0 l 306 0 l 306 875 l 615 875 l 615 154 b 828 8 615 24 725 -24 l 828 100 b 726 167 776 81 726 104 l 726 875 z "},"∑":{"ha":731,"x_min":0,"x_max":0,"o":"m 678 972 l 49 972 l 49 906 l 361 486 l 49 67 l 49 0 l 678 0 l 678 97 l 194 97 l 475 486 l 194 875 l 678 875 z "},"√":{"ha":1121,"x_min":0,"x_max":0,"o":"m 1132 972 l 644 972 l 281 -79 l 124 457 l 11 457 l 190 -156 l 367 -156 l 724 875 l 1132 875 z "},"µ":{"ha":876,"x_min":0,"x_max":0,"o":"m 754 146 l 754 729 l 643 729 l 643 389 b 401 82 643 226 560 82 b 219 389 219 82 219 306 l 219 729 l 107 729 l 107 -251 l 218 -251 l 218 56 b 382 -15 256 11 308 -15 b 643 188 529 -15 611 76 l 643 128 b 815 0 643 32 707 0 l 815 88 b 754 146 778 88 754 104 z "},"∂":{"ha":769,"x_min":0,"x_max":0,"o":"m 53 361 b 368 -15 53 147 183 -15 b 707 404 574 -15 707 150 b 115 1111 707 678 528 1104 l 115 1018 b 583 589 397 1011 567 736 b 357 744 565 642 506 744 b 53 361 185 744 53 576 z m 604 368 b 382 69 604 206 514 69 b 164 368 254 69 164 206 b 375 660 164 526 251 660 b 604 368 544 660 604 515 z "},"%":{"ha":1061,"x_min":0,"x_max":0,"o":"m 65 733 b 294 476 65 590 161 476 b 525 733 429 476 525 592 b 294 990 525 874 429 990 b 65 733 161 990 65 875 z m 874 972 l 63 0 l 185 0 l 994 972 z m 431 733 b 294 563 431 642 379 563 b 160 733 211 563 160 639 b 294 906 160 825 211 906 b 431 733 379 906 431 825 z m 543 242 b 772 -15 543 99 639 -15 b 1003 242 907 -15 1003 100 b 772 499 1003 382 907 499 b 543 242 639 499 543 383 z m 907 242 b 772 69 907 150 857 69 b 639 242 689 69 639 147 b 772 415 639 333 689 415 b 907 242 857 415 907 333 z "},"‰":{"ha":1556,"x_min":0,"x_max":0,"o":"m 65 733 b 294 476 65 590 161 476 b 525 733 429 476 525 592 b 294 990 525 874 429 990 b 65 733 161 990 65 875 z m 874 972 l 63 0 l 185 0 l 994 972 z m 431 733 b 294 563 431 642 379 563 b 160 733 211 563 160 639 b 294 906 160 825 211 906 b 431 733 379 906 431 825 z m 543 242 b 772 -15 543 99 639 -15 b 1003 242 907 -15 1003 100 b 772 499 1003 382 907 499 b 543 242 639 499 543 383 z m 1039 242 b 1268 -15 1039 99 1135 -15 b 1497 242 1403 -15 1497 100 b 1268 499 1497 382 1403 499 b 1039 242 1135 499 1039 383 z m 907 242 b 772 69 907 150 857 69 b 639 242 689 69 639 147 b 772 415 639 333 689 415 b 907 242 857 415 907 333 z m 1401 242 b 1268 69 1401 150 1351 69 b 1135 242 1185 69 1135 147 b 1268 415 1135 333 1185 415 b 1401 242 1351 415 1401 333 z "},"↑":{"ha":1090,"x_min":0,"x_max":0,"o":"m 1029 592 l 614 1007 l 544 1075 l 61 592 l 129 524 l 496 889 l 496 26 l 593 26 l 593 890 l 961 524 z "},"↗":{"ha":989,"x_min":0,"x_max":0,"o":"m 839 729 l 154 729 l 154 632 l 674 632 l 63 21 l 132 -47 l 743 565 l 743 44 l 839 44 z "},"→":{"ha":1185,"x_min":0,"x_max":0,"o":"m 1126 486 l 642 971 l 574 901 l 942 535 l 76 535 l 76 439 l 943 439 l 574 71 l 642 1 z "},"↘":{"ha":986,"x_min":0,"x_max":0,"o":"m 743 685 l 743 164 l 131 775 l 63 707 l 674 97 l 154 97 l 154 0 l 839 0 l 839 685 z "},"↓":{"ha":1088,"x_min":0,"x_max":0,"o":"m 960 535 l 592 168 l 592 1032 l 494 1032 l 494 169 l 128 535 l 60 467 l 543 -18 l 1028 467 z "},"↙":{"ha":989,"x_min":0,"x_max":0,"o":"m 926 703 l 858 772 l 246 160 l 246 681 l 150 681 l 150 -4 l 835 -4 l 835 93 l 317 93 z "},"←":{"ha":1185,"x_min":0,"x_max":0,"o":"m 1108 535 l 244 535 l 613 901 l 543 971 l 60 486 l 543 1 l 613 71 l 243 439 l 1108 439 z "},"↖":{"ha":989,"x_min":0,"x_max":0,"o":"m 926 21 l 317 632 l 835 632 l 835 729 l 150 729 l 150 44 l 246 44 l 246 565 l 858 -47 z "},"↔":{"ha":2001,"x_min":0,"x_max":0,"o":"m 1458 971 l 1389 901 l 1757 535 l 244 535 l 613 901 l 543 971 l 60 486 l 543 1 l 613 71 l 243 439 l 1758 439 l 1389 71 l 1458 1 l 1942 486 z "},"↕":{"ha":1101,"x_min":0,"x_max":0,"o":"m 589 -132 l 589 968 l 981 576 l 1035 631 l 551 1114 l 68 631 l 122 576 l 513 967 l 513 -131 l 122 260 l 68 206 l 551 -278 l 1035 206 l 981 260 z "},"○":{"ha":1208,"x_min":0,"x_max":0,"o":"m 63 486 b 604 -56 63 186 304 -56 b 1146 486 904 -56 1146 186 b 604 1028 1146 786 904 1028 b 63 486 304 1028 63 786 z m 1074 486 b 604 10 1074 225 865 10 b 135 486 343 10 135 225 b 604 963 135 747 343 963 b 1074 486 865 963 1074 747 z "},"◊":{"ha":790,"x_min":0,"x_max":0,"o":"m 444 972 l 346 972 l 43 486 l 346 0 l 444 0 l 747 486 z m 396 81 l 147 486 l 396 892 l 644 486 z "},"☹":{"ha":1147,"x_min":0,"x_max":0,"o":"m 67 488 b 574 -19 67 206 292 -19 b 1081 488 854 -19 1081 206 b 574 994 1081 768 854 994 b 67 488 292 994 67 768 z m 1014 488 b 574 46 1014 243 817 46 b 132 488 329 46 132 243 b 574 928 132 731 329 928 b 1014 488 817 928 1014 731 z m 333 635 b 403 519 333 571 364 519 b 472 635 442 519 472 571 b 403 747 472 696 442 747 b 333 635 364 747 333 696 z m 671 635 b 740 519 671 571 701 519 b 810 635 779 519 810 571 b 740 747 810 696 779 747 b 671 635 701 747 671 696 z m 579 475 b 301 208 446 475 311 385 l 347 208 b 579 425 356 357 471 425 b 810 208 685 425 800 357 l 857 208 b 579 475 846 385 710 475 z "},"☺":{"ha":1147,"x_min":0,"x_max":0,"o":"m 67 488 b 574 -19 67 206 292 -19 b 1081 488 854 -19 1081 206 b 574 994 1081 768 854 994 b 67 488 292 994 67 768 z m 1014 488 b 574 46 1014 243 817 46 b 132 488 329 46 132 243 b 574 928 132 731 329 928 b 1014 488 817 928 1014 731 z m 333 635 b 403 519 333 571 364 519 b 472 635 442 519 472 571 b 403 747 472 696 442 747 b 333 635 364 747 333 696 z m 671 635 b 740 519 671 571 701 519 b 810 635 779 519 810 571 b 740 747 810 696 779 747 b 671 635 701 747 671 696 z m 232 489 b 579 125 242 285 390 125 b 926 489 765 125 915 285 l 879 489 b 579 175 869 313 740 175 b 278 489 415 175 286 313 z "},"♥":{"ha":1035,"x_min":0,"x_max":0,"o":"m 42 643 b 517 72 44 382 506 79 b 993 643 763 225 993 471 b 754 913 993 906 754 913 b 518 675 754 913 521 917 b 281 913 514 917 281 913 b 42 643 281 913 42 906 z "},"@":{"ha":1388,"x_min":0,"x_max":0,"o":"m 686 978 b 56 361 342 978 56 696 b 683 -275 56 6 338 -275 b 1004 -189 801 -275 914 -244 l 972 -117 b 683 -199 897 -165 801 -199 b 140 361 381 -199 140 49 b 686 901 140 653 385 901 b 1238 361 992 901 1238 692 b 1092 64 1238 243 1213 64 b 983 203 1014 64 983 142 l 983 417 b 690 710 983 633 851 710 b 381 438 508 710 386 614 l 493 438 b 690 622 493 560 581 622 b 872 486 826 622 869 533 b 367 165 639 403 367 361 b 617 -14 367 61 481 -24 b 874 167 751 -6 831 67 b 1082 -15 879 104 921 -15 b 1322 361 1290 -15 1322 219 b 686 978 1322 735 1035 978 z m 629 76 b 481 171 549 71 481 115 b 872 397 481 285 658 324 b 629 76 871 297 832 93 z "},"&":{"ha":1003,"x_min":0,"x_max":0,"o":"m 1039 0 l 813 186 b 832 583 867 281 886 410 l 717 583 b 724 260 767 440 760 336 l 375 547 b 267 746 335 582 267 657 b 410 885 267 813 324 885 b 546 721 517 885 546 801 l 665 721 b 411 988 665 888 568 988 b 151 754 264 988 151 892 b 261 515 151 658 207 567 b 69 271 150 471 69 372 b 432 -15 69 82 260 -15 b 746 106 529 -15 656 21 l 871 0 z m 439 88 b 183 278 329 88 183 144 b 301 481 183 357 207 424 l 663 176 b 439 88 594 113 501 88 z "},"¶":{"ha":829,"x_min":0,"x_max":0,"o":"m 774 992 l 388 992 b 40 679 167 990 40 853 b 388 367 40 506 167 368 l 388 -147 l 485 -147 l 485 903 l 568 903 l 568 -147 l 667 -147 l 667 903 l 774 903 z "},"§":{"ha":760,"x_min":0,"x_max":0,"o":"m 583 249 b 701 417 640 276 701 325 b 388 653 701 582 507 632 b 217 776 269 672 217 706 b 361 900 217 864 286 900 b 528 729 490 900 528 815 l 639 729 b 363 988 639 838 574 988 b 106 767 199 988 106 894 b 176 626 106 701 133 658 b 63 464 124 603 63 557 b 357 224 63 310 229 246 b 549 94 460 204 549 181 b 404 -37 549 6 485 -37 b 201 160 357 -37 201 -21 l 90 160 b 397 -125 90 28 174 -125 b 660 103 578 -125 660 -21 b 583 249 660 171 628 217 z m 356 321 b 168 476 238 342 168 399 b 224 600 168 533 192 579 b 388 554 274 576 333 564 b 597 406 492 535 597 497 b 536 274 597 356 569 299 b 356 321 478 300 410 311 z "},"©":{"ha":1206,"x_min":0,"x_max":0,"o":"m 61 486 b 603 -56 61 186 303 -56 b 1144 486 903 -56 1144 186 b 603 1028 1144 786 903 1028 b 61 486 303 1028 61 786 z m 1072 486 b 603 10 1072 225 864 10 b 132 486 342 10 132 225 b 603 963 132 747 342 963 b 1072 486 864 963 1072 747 z m 324 475 b 604 176 324 328 417 176 b 865 413 772 176 860 297 l 789 411 b 604 242 781 300 704 242 b 400 475 486 242 400 328 b 604 713 400 624 486 713 b 789 532 708 713 781 646 l 865 532 b 601 778 858 649 772 778 b 324 475 417 778 324 625 z "},"®":{"ha":1206,"x_min":0,"x_max":0,"o":"m 603 1028 b 61 486 303 1028 61 786 b 603 -56 61 186 303 -56 b 1144 486 903 -56 1144 186 b 603 1028 1144 786 903 1028 z m 603 10 b 132 486 342 10 132 225 b 603 963 132 747 342 963 b 1072 486 864 963 1072 747 b 603 10 1072 225 864 10 z m 707 469 b 833 622 776 479 833 525 b 651 783 833 733 758 783 l 378 783 l 378 200 l 456 200 l 456 454 l 635 454 b 772 200 746 454 728 300 l 858 200 b 707 469 803 300 806 460 z m 456 515 l 456 722 l 644 722 b 757 618 731 722 757 685 b 644 515 757 553 731 515 z "},"™":{"ha":1324,"x_min":0,"x_max":0,"o":"m 524 972 l 39 972 l 39 910 l 246 910 l 246 386 l 317 386 l 317 910 l 524 910 z m 1208 972 l 1085 972 l 900 425 l 717 972 l 592 972 l 592 386 l 663 386 l 663 922 l 842 386 l 957 386 l 1138 922 l 1138 386 l 1208 386 z "},"°":{"ha":492,"x_min":0,"x_max":0,"o":"m 51 919 b 246 725 51 813 139 725 b 440 919 353 725 440 813 b 246 1114 440 1026 353 1114 b 51 919 139 1114 51 1026 z m 372 919 b 246 793 372 850 315 793 b 119 919 176 793 119 850 b 246 1046 119 989 176 1046 b 372 919 315 1046 372 989 z "},"|":{"ha":336,"x_min":0,"x_max":0,"o":"m 117 1111 l 117 -278 l 219 -278 l 219 1111 z "},"¦":{"ha":336,"x_min":0,"x_max":0,"o":"m 113 1111 l 113 618 l 224 618 l 224 1111 z m 113 215 l 113 -278 l 224 -278 l 224 215 z "},"†":{"ha":599,"x_min":0,"x_max":0,"o":"m 354 719 l 354 1042 l 243 1042 l 243 719 l 43 729 l 43 632 l 243 642 l 243 403 l 271 -69 l 328 -69 l 354 403 l 354 642 l 554 632 l 554 729 z "},"‡":{"ha":604,"x_min":0,"x_max":0,"o":"m 557 632 l 557 729 l 357 719 l 357 1042 l 246 1042 l 246 719 l 46 729 l 46 632 l 246 642 l 246 524 l 46 533 l 46 436 l 246 446 l 246 404 l 274 -69 l 331 -69 l 357 404 l 357 446 l 557 436 l 557 533 l 357 524 l 357 642 z "},"̈":{"ha":0,"x_min":0,"x_max":0,"o":"m -654 907 b -578 831 -654 864 -622 831 b -501 907 -536 831 -501 864 b -578 985 -501 950 -536 985 b -654 907 -622 985 -654 950 z m -328 907 b -253 831 -328 864 -296 831 b -175 907 -210 831 -175 864 b -253 985 -175 950 -210 985 b -328 907 -296 985 -328 950 z "},"̇":{"ha":0,"x_min":0,"x_max":0,"o":"m -203 908 b -124 829 -203 864 -168 829 b -44 908 -81 829 -44 864 b -124 986 -44 951 -81 986 b -203 908 -168 986 -203 951 z "},"̀":{"ha":0,"x_min":0,"x_max":0,"o":"m -444 1028 l -607 1028 l -339 799 l -243 799 z "},"́":{"ha":0,"x_min":0,"x_max":0,"o":"m -410 1028 l -611 799 l -515 799 l -247 1028 z "},"̋":{"ha":0,"x_min":0,"x_max":0,"o":"m -500 1028 l -701 799 l -606 799 l -337 1028 z m -249 1028 l -450 799 l -354 799 l -86 1028 z "},"̂":{"ha":0,"x_min":0,"x_max":0,"o":"m -154 799 l -343 1028 l -490 1028 l -679 799 l -572 799 l -417 967 l -261 799 z "},"̌":{"ha":0,"x_min":0,"x_max":0,"o":"m -261 1028 l -417 860 l -571 1028 l -679 1028 l -490 799 l -343 799 l -154 1028 z "},"̆":{"ha":0,"x_min":0,"x_max":0,"o":"m -664 1028 b -417 797 -661 889 -562 797 b -169 1028 -271 797 -172 889 l -260 1028 b -417 869 -261 935 -325 869 b -575 1028 -508 869 -574 935 z "},"̊":{"ha":0,"x_min":0,"x_max":0,"o":"m -586 967 b -414 794 -586 872 -508 794 b -242 967 -319 794 -242 872 b -414 1139 -242 1061 -319 1139 b -586 967 -508 1139 -586 1061 z m -307 967 b -414 861 -307 908 -356 861 b -519 967 -472 861 -519 908 b -414 1074 -519 1025 -472 1074 b -307 967 -356 1074 -307 1025 z "},"̃":{"ha":0,"x_min":0,"x_max":0,"o":"m -521 915 b -281 818 -444 915 -365 818 b -124 978 -215 818 -124 861 l -187 978 b -269 900 -192 940 -217 900 b -508 997 -335 900 -414 997 b -669 838 -586 997 -669 946 l -604 838 b -521 915 -599 878 -567 915 z "},"̄":{"ha":0,"x_min":0,"x_max":0,"o":"m -708 878 l -708 799 l -125 799 l -125 878 z "},"̒":{"ha":0,"x_min":0,"x_max":0,"o":"m -60 958 b -12 1029 -60 999 -47 1029 l -12 1061 b -107 958 -57 1061 -107 1029 l -107 851 l 0 851 l 0 958 z "},"̦":{"ha":0,"x_min":0,"x_max":0,"o":"m -107 -56 l -107 -162 l -49 -162 b -94 -233 -49 -203 -60 -233 l -94 -264 b 0 -162 -50 -264 0 -233 l 0 -56 z "},"̧":{"ha":0,"x_min":0,"x_max":0,"o":"m -603 -224 b -457 -292 -581 -258 -522 -292 b -299 -160 -368 -292 -299 -235 b -404 -65 -299 -106 -346 -65 b -489 -96 -432 -65 -467 -78 l -425 3 l -490 3 l -583 -144 l -512 -144 b -431 -111 -493 -125 -458 -111 b -378 -165 -400 -111 -378 -136 b -456 -228 -378 -201 -412 -228 b -539 -185 -485 -228 -521 -211 z "},"̨":{"ha":0,"x_min":0,"x_max":0,"o":"m -215 -133 b -97 -236 -215 -192 -172 -236 b -3 -204 -61 -236 -25 -225 l -3 -147 b -68 -175 -19 -167 -36 -175 b -118 -117 -101 -175 -118 -146 b -65 0 -118 -75 -103 -43 l -140 0 b -215 -133 -179 -29 -215 -90 z "},"̵":{"ha":0,"x_min":0,"x_max":0,"o":"m -676 413 l -676 333 l -157 333 l -157 413 z "},"̶":{"ha":0,"x_min":0,"x_max":0,"o":"m -833 440 l -833 361 l 0 361 l 0 440 z "},"̷":{"ha":0,"x_min":0,"x_max":0,"o":"m -203 754 l -749 -22 l -650 -22 l -104 754 z "},"̸":{"ha":0,"x_min":0,"x_max":0,"o":"m -1 1056 l -803 -83 l -693 -83 l 107 1056 z "},"´":{"ha":833,"x_min":0,"x_max":0,"o":"m 424 1028 l 222 799 l 318 799 l 586 1028 z "},"˘":{"ha":833,"x_min":0,"x_max":0,"o":"m 169 1028 b 417 797 172 889 271 797 b 664 1028 563 797 661 889 l 574 1028 b 417 869 572 935 508 869 b 258 1028 325 869 260 935 z "},"ˇ":{"ha":833,"x_min":0,"x_max":0,"o":"m 572 1028 l 417 860 l 263 1028 l 154 1028 l 343 799 l 490 799 l 679 1028 z "},"¸":{"ha":833,"x_min":0,"x_max":0,"o":"m 265 -224 b 411 -292 288 -258 346 -292 b 569 -160 500 -292 569 -235 b 464 -65 569 -106 522 -65 b 379 -96 436 -65 401 -78 l 443 3 l 378 3 l 285 -144 l 356 -144 b 438 -111 375 -125 410 -111 b 490 -165 468 -111 490 -136 b 413 -228 490 -201 456 -228 b 329 -185 383 -228 347 -211 z "},"ˆ":{"ha":833,"x_min":0,"x_max":0,"o":"m 679 799 l 490 1028 l 343 1028 l 154 799 l 261 799 l 417 967 l 572 799 z "},"¨":{"ha":833,"x_min":0,"x_max":0,"o":"m 179 907 b 256 831 179 864 211 831 b 332 907 297 831 332 864 b 256 985 332 950 297 985 b 179 907 211 985 179 950 z m 506 907 b 581 831 506 864 538 831 b 658 907 624 831 658 864 b 581 985 658 950 624 985 b 506 907 538 985 506 950 z "},"˙":{"ha":249,"x_min":0,"x_max":0,"o":"m 44 908 b 124 829 44 864 79 829 b 203 908 167 829 203 864 b 124 986 203 951 167 986 b 44 908 79 986 44 951 z "},"`":{"ha":833,"x_min":0,"x_max":0,"o":"m 389 1028 l 226 1028 l 494 799 l 590 799 z "},"˝":{"ha":833,"x_min":0,"x_max":0,"o":"m 314 1028 l 113 799 l 208 799 l 476 1028 z m 565 1028 l 364 799 l 460 799 l 728 1028 z "},"¯":{"ha":833,"x_min":0,"x_max":0,"o":"m 125 878 l 125 799 l 708 799 l 708 878 z "},"˛":{"ha":833,"x_min":0,"x_max":0,"o":"m -3 -133 b 115 -236 -3 -192 40 -236 b 210 -204 151 -236 188 -225 l 210 -147 b 144 -175 193 -167 176 -175 b 94 -117 111 -175 94 -146 b 147 0 94 -75 110 -43 l 72 0 b -3 -133 33 -29 -3 -90 z "},"˚":{"ha":833,"x_min":0,"x_max":0,"o":"m 250 967 b 422 794 250 872 328 794 b 594 967 517 794 594 872 b 422 1139 594 1061 517 1139 b 250 967 328 1139 250 1061 z m 529 967 b 422 861 529 908 481 861 b 317 967 364 861 317 908 b 422 1074 317 1025 364 1074 b 529 967 481 1074 529 1025 z "},"˜":{"ha":833,"x_min":0,"x_max":0,"o":"m 272 915 b 513 818 349 915 428 818 b 669 978 578 818 669 861 l 606 978 b 524 900 601 940 576 900 b 285 997 458 900 379 997 b 124 838 207 997 124 946 l 189 838 b 272 915 194 878 226 915 z "},"¹":{"ha":338,"x_min":0,"x_max":0,"o":"m 257 972 l 150 972 b 29 821 149 890 108 826 l 29 743 b 178 892 124 747 164 811 l 178 417 l 257 417 z "},"²":{"ha":528,"x_min":0,"x_max":0,"o":"m 138 490 b 286 638 151 597 206 608 b 472 814 401 679 472 714 b 271 979 472 910 393 979 b 50 757 136 979 50 889 l 133 757 b 275 911 133 869 200 911 b 392 819 329 911 392 878 b 285 707 392 746 331 725 b 51 428 154 660 51 626 l 51 417 l 481 417 l 481 490 z "},"³":{"ha":526,"x_min":0,"x_max":0,"o":"m 350 708 b 456 821 417 726 456 764 b 260 979 456 913 375 979 b 53 789 132 979 53 894 l 135 789 b 257 911 135 863 183 911 b 375 818 324 911 375 874 b 231 738 375 771 322 738 l 231 679 b 399 576 333 679 399 640 b 267 479 399 518 344 479 b 128 607 182 479 128 532 l 46 607 b 268 410 46 488 135 410 b 481 574 392 410 481 474 b 350 708 481 643 429 689 z "}," ":{"ha":139,"x_min":0,"x_max":0,"o":""},"€":{"ha":1208,"x_min":0,"x_max":0,"o":"m 710 85 b 385 349 553 85 429 186 l 835 349 l 853 424 l 371 424 b 368 483 369 443 368 463 b 371 540 368 503 369 522 l 872 540 l 890 615 l 385 615 b 708 888 426 782 551 888 b 1024 576 890 888 1007 763 l 1142 576 b 708 988 1128 819 954 988 b 263 615 486 988 313 840 l 96 615 l 78 540 l 251 540 b 249 482 250 521 249 501 b 251 424 249 463 250 443 l 58 424 l 40 349 l 264 349 b 710 -15 314 129 488 -15 b 1142 376 957 -15 1128 144 l 1024 376 b 710 85 1008 201 889 85 z "}}}
